<svg xmlns="http://www.w3.org/2000/svg" viewBox="0 0 233.58 267.48"><defs><style>.cls-1{fill:#002bff;}.cls-2{fill:#1d008e;}</style></defs><g id="Capa_2" data-name="Capa 2"><g id="Capa_1-2" data-name="Capa 1"><path class="cls-1" d="M178.93,267.48H29.8A29.84,29.84,0,0,1,0,237.68V53.57a29.84,29.84,0,0,1,29.8-29.8,5.65,5.65,0,1,1,0,11.29A18.53,18.53,0,0,0,11.29,53.57V237.68A18.53,18.53,0,0,0,29.8,256.19H178.93a18.53,18.53,0,0,0,18.51-18.51,5.65,5.65,0,0,1,11.3,0A29.84,29.84,0,0,1,178.93,267.48Z"/><path class="cls-2" d="M221.63,63.55H192.81A22.81,22.81,0,0,1,170,40.76V11a5.65,5.65,0,0,1,11.29,0V40.76a11.5,11.5,0,0,0,11.49,11.49h28.82a5.65,5.65,0,1,1,0,11.3Z"/><path class="cls-1" d="M108.32,65.75h-42a5.65,5.65,0,0,1,0-11.3h42a5.65,5.65,0,0,1,0,11.3Z"/><path class="cls-1" d="M190.46,98.35H66.31a5.65,5.65,0,0,1,0-11.3H190.46a5.65,5.65,0,0,1,0,11.3Z"/><path class="cls-1" d="M172.93,131H66.31a5.65,5.65,0,0,1,0-11.3H172.93a5.65,5.65,0,0,1,0,11.3Z"/><path class="cls-1" d="M172.93,164.84H66.31a5.65,5.65,0,0,1,0-11.3H172.93a5.65,5.65,0,0,1,0,11.3Z"/><path class="cls-1" d="M119.62,205.94H66.31a5.65,5.65,0,0,1,0-11.3h53.31a5.65,5.65,0,0,1,0,11.3Z"/><path class="cls-2" d="M203.77,243.72H54.64a29.84,29.84,0,0,1-29.8-29.81V29.8A29.84,29.84,0,0,1,54.64,0H170.7a29.91,29.91,0,0,1,21.79,9.47l33.07,35.42a29.73,29.73,0,0,1,8,20.34V213.91A29.84,29.84,0,0,1,203.77,243.72ZM54.64,11.29A18.54,18.54,0,0,0,36.13,29.8V213.91a18.53,18.53,0,0,0,18.51,18.51H203.77a18.53,18.53,0,0,0,18.51-18.51V65.23a18.45,18.45,0,0,0-5-12.63L184.23,17.17a18.58,18.58,0,0,0-13.53-5.88Z"/></g></g></svg>