<svg xmlns="http://www.w3.org/2000/svg" viewBox="0 0 208.79 186.29"><defs><style>.cls-1{fill:#002bff;}.cls-2{fill:#1d008e;}</style></defs><g id="Capa_2" data-name="Capa 2"><g id="Capa_1-2" data-name="Capa 1"><path class="cls-1" d="M128.9,85.44a35.91,35.91,0,0,1,0-71.81h19.33a5.65,5.65,0,1,1,0,11.29H128.9a24.61,24.61,0,0,0,0,49.22,5.65,5.65,0,1,1,0,11.3Z"/><path class="cls-1" d="M172.88,85.44h-22a5.65,5.65,0,0,1,0-11.3h22a24.61,24.61,0,1,0,0-49.22,5.65,5.65,0,0,1,0-11.29,35.91,35.91,0,1,1,0,71.81Z"/><path class="cls-1" d="M139.72,38.7a5.65,5.65,0,0,1-4-9.64l9.71-9.71-9.71-9.71a5.65,5.65,0,1,1,8-8l13.71,13.71a5.65,5.65,0,0,1,0,8L143.71,37.05A5.62,5.62,0,0,1,139.72,38.7Z"/><path class="cls-2" d="M185.3,166a5.65,5.65,0,0,1,0-11.29,9.68,9.68,0,0,0,9.67-9.67V97.91a9.65,9.65,0,0,0-.74-3.72,5.65,5.65,0,0,1,10.42-4.35,20.91,20.91,0,0,1,1.61,8.07v47.17A21,21,0,0,1,185.3,166Z"/><path class="cls-2" d="M32.08,166H21a21,21,0,0,1-21-21V105.9a20.89,20.89,0,0,1,14.7-20l30.76-9.63a9.62,9.62,0,0,0,6-5.38l6.68-15.41A21,21,0,0,1,77.35,42.84a5.65,5.65,0,1,1,0,11.29A9.66,9.66,0,0,0,68.48,60l-6.67,15.4A21,21,0,0,1,48.84,87L18.07,96.67a9.64,9.64,0,0,0-6.78,9.23v39.18A9.68,9.68,0,0,0,21,154.75H32.08a5.65,5.65,0,1,1,0,11.29Z"/><path class="cls-2" d="M135.63,166H74.08a5.65,5.65,0,0,1,0-11.29h61.55a5.65,5.65,0,1,1,0,11.29Z"/><path class="cls-2" d="M157.67,186.29a25.89,25.89,0,1,1,25.88-25.89A25.91,25.91,0,0,1,157.67,186.29Zm0-40.48a14.6,14.6,0,1,0,14.59,14.59A14.61,14.61,0,0,0,157.67,145.81Z"/><path class="cls-2" d="M53.85,186.29A25.89,25.89,0,1,1,79.73,160.4,25.91,25.91,0,0,1,53.85,186.29Zm0-40.48A14.6,14.6,0,1,0,68.44,160.4,14.61,14.61,0,0,0,53.85,145.81Z"/><path class="cls-2" d="M22,123.17H7.56a5.65,5.65,0,0,1,0-11.3H22a5.65,5.65,0,0,1,0,11.3Z"/></g></g></svg>