<svg xmlns="http://www.w3.org/2000/svg" viewBox="0 0 235.18 234.43"><defs><style>.cls-1{fill:#002bff;}.cls-2{fill:#1d008e;}</style></defs><g id="Capa_2" data-name="Capa 2"><g id="Capa_1-2" data-name="Capa 1"><path class="cls-1" d="M90.29,34.46a5.66,5.66,0,0,1-4.23-9.39L90.56,20a3.49,3.49,0,0,0,.86-2.53,3.43,3.43,0,0,0-1.17-2.4,3.5,3.5,0,0,0-4.93.3L74.12,28a5.65,5.65,0,1,1-8.46-7.48L76.86,7.89A14.78,14.78,0,1,1,99,27.46l-4.49,5.09A5.67,5.67,0,0,1,90.29,34.46Z"/><path class="cls-2" d="M103.48,98.2a5.64,5.64,0,0,1-3.06-.9L4.3,35.27A5.65,5.65,0,0,1,3,27L12.7,15.1a5.64,5.64,0,0,1,5.46-2l131.35,26a5.64,5.64,0,1,1-2.19,11.07l-128-25.34-3.55,4.34,90.81,58.6a5.65,5.65,0,0,1-3.07,10.39Z"/><path class="cls-1" d="M216.05,158.69a5.65,5.65,0,0,1-4.23-9.39L223,136.63a3.49,3.49,0,1,0-5.23-4.62l-6.23,7a5.64,5.64,0,1,1-8.46-7.47l6.23-7.05a14.79,14.79,0,0,1,22.16,19.58l-11.2,12.67A5.65,5.65,0,0,1,216.05,158.69Z"/><path class="cls-2" d="M85.67,224.89a5.68,5.68,0,0,1-3.74-1.41L14.66,164.05a5.66,5.66,0,0,1-.49-8l13.38-15.14a5.65,5.65,0,0,1,6.29-1.52l26,10.2a5.64,5.64,0,0,1-4.12,10.51L33.4,151.38l-7,8,58.81,51.95,7-7.95L80.76,182.24a5.65,5.65,0,0,1,9.93-5.39L104,201.42a5.65,5.65,0,0,1-.73,6.43L89.9,223A5.64,5.64,0,0,1,86,224.88Z"/><path class="cls-1" d="M148.91,206a5.64,5.64,0,0,1-4.23-9.38l14.91-16.88a5.65,5.65,0,1,1,8.46,7.48l-14.91,16.87A5.6,5.6,0,0,1,148.91,206Z"/><path class="cls-1" d="M160,234.43a5.65,5.65,0,0,1-4.28-9.33l20.07-23.34a5.65,5.65,0,1,1,8.57,7.36l-20.07,23.35A5.67,5.67,0,0,1,160,234.43Z"/><path class="cls-1" d="M34.82,105.21a5.65,5.65,0,0,1-4.23-9.39L45.5,79A5.64,5.64,0,1,1,54,86.42L39.05,103.3A5.63,5.63,0,0,1,34.82,105.21Z"/><path class="cls-1" d="M5.64,98.48a5.64,5.64,0,0,1-4.27-9.33L21.66,65.58A5.65,5.65,0,1,1,30.22,73L9.93,96.52A5.64,5.64,0,0,1,5.64,98.48Z"/><path class="cls-2" d="M217.65,221.94h-.21a5.63,5.63,0,0,1-4.15-2.05L141.76,133a5.65,5.65,0,1,1,8.72-7.18L218,207.79l3.84-4L180.85,79.84a5.65,5.65,0,0,1,10.73-3.54l42,127.14a5.63,5.63,0,0,1-1.27,5.66l-10.57,11.09A5.62,5.62,0,0,1,217.65,221.94Z"/><path class="cls-2" d="M61.5,203.54a5.6,5.6,0,0,1-3.74-1.42l-17.5-15.45a5.67,5.67,0,0,1-.9-7.46l62.4-89.85c.13-.18.26-.35.41-.52l61.15-69.21c5.38-6.09,15.19-12.46,25-16.22,12.71-4.88,23.17-4.51,29.45,1s7.93,15.89,4.66,29.11c-2.53,10.19-7.63,20.71-13,26.79l-62.22,70.43a6.38,6.38,0,0,1-.52.52L65.2,202.15A5.59,5.59,0,0,1,61.5,203.54Zm-10-22,10,8.85L139,123l62-70.14c4.14-4.68,8.46-13.74,10.52-22,2.11-8.55,1.66-15.41-1.18-17.92s-9.71-2.11-17.92,1c-8,3.07-16.44,8.48-20.58,13.15l-60.93,69Z"/></g></g></svg>