<svg xmlns="http://www.w3.org/2000/svg" viewBox="0 0 235.88 255.95"><defs><style>.cls-1{fill:#1d008e;}.cls-2{fill:#002bff;}</style></defs><g id="Capa_2" data-name="Capa 2"><g id="Capa_1-2" data-name="Capa 1"><path class="cls-1" d="M41.47,243.72H29.8A29.84,29.84,0,0,1,0,213.91V29.8A29.84,29.84,0,0,1,29.8,0H145.86a29.91,29.91,0,0,1,21.79,9.47l33.07,35.42a29.73,29.73,0,0,1,8,20.34v48.42a5.65,5.65,0,0,1-11.3,0V65.23a18.42,18.42,0,0,0-5-12.63L159.39,17.17a18.6,18.6,0,0,0-13.53-5.88H29.8A18.54,18.54,0,0,0,11.29,29.8V213.91A18.53,18.53,0,0,0,29.8,232.42H41.47a5.65,5.65,0,0,1,0,11.3Z"/><path class="cls-1" d="M196.79,63.55H168a22.81,22.81,0,0,1-22.78-22.79V11a5.65,5.65,0,0,1,11.29,0V40.76A11.5,11.5,0,0,0,168,52.25h28.82a5.65,5.65,0,0,1,0,11.3Z"/><path class="cls-2" d="M83.48,65.75h-42a5.65,5.65,0,0,1,0-11.3h42a5.65,5.65,0,0,1,0,11.3Z"/><path class="cls-2" d="M165.62,98.35H41.47a5.65,5.65,0,0,1,0-11.3H165.62a5.65,5.65,0,0,1,0,11.3Z"/><path class="cls-2" d="M80,131H41.47a5.65,5.65,0,0,1,0-11.3H80A5.65,5.65,0,1,1,80,131Z"/><path class="cls-2" d="M216.2,237.41a5.65,5.65,0,0,1,0-11.3,8.39,8.39,0,0,0,8.39-8.38V174.51a8.44,8.44,0,0,0-.58-3.06l-13.86-27.64c-.06-.12-.12-.24-.17-.36a8.36,8.36,0,0,0-7.74-5.15H116.37a8.38,8.38,0,0,0-7.7,5l-.09.21-5.13,10.6A19.65,19.65,0,0,1,91.33,165l-28.19,8.83a8.35,8.35,0,0,0-5.88,8v35.9a8.39,8.39,0,0,0,8.38,8.38h10.2a5.65,5.65,0,0,1,0,11.3H65.64A19.7,19.7,0,0,1,46,217.73v-35.9a19.6,19.6,0,0,1,13.79-18.78L88,154.23a8.38,8.38,0,0,0,5.19-4.67l.09-.22,5.13-10.6a19.68,19.68,0,0,1,18-11.74h85.87a19.63,19.63,0,0,1,18.08,11.91l13.88,27.67c.06.12.12.24.17.36a19.67,19.67,0,0,1,1.51,7.57v43.22A19.7,19.7,0,0,1,216.2,237.41Z"/><path class="cls-2" d="M170.7,237.41H114.31a5.65,5.65,0,0,1,0-11.3H170.7a5.65,5.65,0,1,1,0,11.3Z"/><path class="cls-2" d="M190.89,256a24.19,24.19,0,1,1,24.18-24.18A24.21,24.21,0,0,1,190.89,256Zm0-37.08a12.9,12.9,0,1,0,12.89,12.9A12.92,12.92,0,0,0,190.89,218.87Z"/><path class="cls-2" d="M95.77,256A24.19,24.19,0,1,1,120,231.77,24.21,24.21,0,0,1,95.77,256Zm0-37.08a12.9,12.9,0,1,0,12.9,12.9A12.91,12.91,0,0,0,95.77,218.87Z"/><path class="cls-2" d="M222.43,179H159.34a5.65,5.65,0,0,1,0-11.29h63.09a5.65,5.65,0,1,1,0,11.29Z"/><path class="cls-2" d="M66.63,198.13H53.37a5.65,5.65,0,0,1,0-11.3H66.63a5.65,5.65,0,1,1,0,11.3Z"/></g></g></svg>