<svg xmlns="http://www.w3.org/2000/svg" viewBox="0 0 227.94 252.39"><defs><style>.cls-1{fill:#1d008e;}.cls-2{fill:#002bff;}</style></defs><g id="Capa_2" data-name="Capa 2"><g id="Capa_1-2" data-name="Capa 1"><path class="cls-1" d="M104.37,243.72H29.8A29.84,29.84,0,0,1,0,213.91V29.8A29.84,29.84,0,0,1,29.8,0H145.86a29.91,29.91,0,0,1,21.79,9.47L200.72,44.9a29.69,29.69,0,0,1,8,20.33V96.47a5.65,5.65,0,0,1-11.3,0V65.23a18.46,18.46,0,0,0-5-12.63L159.39,17.17a18.6,18.6,0,0,0-13.53-5.88H29.8A18.54,18.54,0,0,0,11.29,29.8V213.91A18.53,18.53,0,0,0,29.8,232.42h74.57a5.65,5.65,0,0,1,0,11.3Z"/><path class="cls-1" d="M196.79,63.55H168a22.81,22.81,0,0,1-22.78-22.79V11a5.65,5.65,0,0,1,11.29,0V40.76A11.5,11.5,0,0,0,168,52.25h28.82a5.65,5.65,0,0,1,0,11.3Z"/><path class="cls-2" d="M83.48,65.75h-42a5.65,5.65,0,0,1,0-11.3h42a5.65,5.65,0,0,1,0,11.3Z"/><path class="cls-2" d="M165.61,98.35H41.47a5.65,5.65,0,0,1,0-11.3H165.61a5.65,5.65,0,0,1,0,11.3Z"/><path class="cls-2" d="M62.47,131h-21a5.65,5.65,0,0,1,0-11.3h21a5.65,5.65,0,1,1,0,11.3Z"/><path class="cls-2" d="M55.62,166.92H41.47a5.65,5.65,0,0,1,0-11.3H55.62a5.65,5.65,0,1,1,0,11.3Z"/><path class="cls-2" d="M62.47,198.56h-21a5.65,5.65,0,0,1,0-11.29h21a5.65,5.65,0,1,1,0,11.29Z"/><path class="cls-2" d="M200,223.39a5.65,5.65,0,0,1-4-9.64l5.16-5.16a3.94,3.94,0,0,0,0-5.56l-41.84-41.84a5.65,5.65,0,0,1,8-8L209.19,195a15.23,15.23,0,0,1,0,21.54L204,221.73A5.6,5.6,0,0,1,200,223.39Z"/><path class="cls-2" d="M192.84,242.49a15.21,15.21,0,0,1-10.58-4.24L140,197.5a5.65,5.65,0,0,1,7.84-8.13l42.27,40.75a4,4,0,0,0,6.69-2.86,3.91,3.91,0,0,0-1.17-2.79L154.74,184a5.65,5.65,0,0,1,7.95-8l40.88,40.5a15.22,15.22,0,0,1-10.73,26Z"/><path class="cls-2" d="M172.15,250.49a17.86,17.86,0,0,1-12.65-5.24l-32.84-32.84a5.65,5.65,0,0,1,8-8l32.84,32.84a6.58,6.58,0,0,0,9.07.23l5.33-4.81a5.65,5.65,0,1,1,7.57,8.38l-5.33,4.82A17.85,17.85,0,0,1,172.15,250.49Z"/><path class="cls-2" d="M147.39,252.39a14.46,14.46,0,0,1-10.26-4.28L87.29,198.27a20.12,20.12,0,0,1-5.72-11.68L78.91,165.5a5.36,5.36,0,0,0-1.59-3.18l-5.09-4.92a13.15,13.15,0,0,1,0-19l29.52-28.29a16.17,16.17,0,0,1,22.37,0l2.27,2.16a10.56,10.56,0,0,0,6,2.82l12.11,1.42a5.65,5.65,0,0,1-1.31,11.22l-12.11-1.42a21.9,21.9,0,0,1-12.49-5.85l-2.28-2.17a4.88,4.88,0,0,0-6.76,0L80.09,146.6a1.86,1.86,0,0,0,0,2.68l5.09,4.92a16.74,16.74,0,0,1,4.94,9.89l2.65,21.09a8.85,8.85,0,0,0,2.5,5.1l49.84,49.84a3.2,3.2,0,0,0,4.49.06l4.68-4.44a5.64,5.64,0,1,1,7.77,8.19l-4.67,4.44A14.49,14.49,0,0,1,147.39,252.39Z"/><path class="cls-2" d="M205.71,198.56a5.64,5.64,0,0,1-5.26-7.68l2.57-6.66a60.93,60.93,0,0,0,3-18l.09-6.75a5.63,5.63,0,0,1,1.65-3.91l8.66-8.66a1,1,0,0,0,.27-.66.9.9,0,0,0-.28-.66L186.24,115.8a2.49,2.49,0,0,0-3.47,0l-7.84,7.46a5.63,5.63,0,0,1-3.89,1.55h-2.66a71.76,71.76,0,0,0-24.07,4.15l-37.65,36.17a3.37,3.37,0,1,0,4.66,4.86l21.15-20.23a5.63,5.63,0,0,1,3.9-1.57h11a26.93,26.93,0,0,0,13.26-3.5l9.78-5.54a5.64,5.64,0,1,1,5.57,9.82l-9.78,5.55a38.26,38.26,0,0,1-18.83,5h-8.71l-19.51,18.66A14.66,14.66,0,0,1,98.83,157l38.52-37a5.51,5.51,0,0,1,2-1.23l.39-.15a83.07,83.07,0,0,1,28.68-5.09h.41l6.2-5.9a13.73,13.73,0,0,1,19.19.19l30.14,29.81a12.23,12.23,0,0,1,0,17.33l-7,7-.06,4.45a71.92,71.92,0,0,1-3.56,21.47c0,.09-.06.19-.1.29L211,195A5.65,5.65,0,0,1,205.71,198.56Z"/></g></g></svg>