<svg xmlns="http://www.w3.org/2000/svg" viewBox="0 0 217.94 247.6"><defs><style>.cls-1{fill:#1d008e;}.cls-2{fill:#002bff;}</style></defs><g id="Capa_2" data-name="Capa 2"><g id="Capa_1-2" data-name="Capa 1"><path class="cls-1" d="M212.3,247.6H5.65A5.65,5.65,0,0,1,0,242V121.51a5.64,5.64,0,0,1,2-4.32L14.05,107a5.65,5.65,0,1,1,7.28,8.63l-10,8.48V236.3H206.65V127.1l-12.08-9.76a5.65,5.65,0,0,1,7.09-8.79L215.85,120a5.65,5.65,0,0,1,2.09,4.39V242A5.64,5.64,0,0,1,212.3,247.6Z"/><path class="cls-1" d="M212.29,247.6a5.63,5.63,0,0,1-3.46-1.19l-97.82-76L11.13,244.28a5.65,5.65,0,0,1-6.72-9.08l103.33-76.45a5.63,5.63,0,0,1,6.82.08l101.2,78.66a5.65,5.65,0,0,1-3.47,10.11Z"/><path class="cls-2" d="M85.86,63.82H47.91a5.65,5.65,0,0,1,0-11.3h38a5.65,5.65,0,1,1,0,11.3Z"/><path class="cls-2" d="M160.08,93.27H47.91a5.65,5.65,0,1,1,0-11.29H160.08a5.65,5.65,0,0,1,0,11.29Z"/><path class="cls-2" d="M144.24,122.73H47.91a5.65,5.65,0,1,1,0-11.29h96.33a5.65,5.65,0,1,1,0,11.29Z"/><path class="cls-2" d="M190.71,57.43H165.27A20.8,20.8,0,0,1,144.5,36.65V10.35a5.65,5.65,0,1,1,11.29,0v26.3a9.49,9.49,0,0,0,9.48,9.48h25.44a5.65,5.65,0,1,1,0,11.3Z"/><path class="cls-2" d="M196.28,139.27a5.65,5.65,0,0,1-5.65-5.65V58.25a15.65,15.65,0,0,0-4.22-10.7l-29.2-31.28a15.74,15.74,0,0,0-11.46-5H43.29A15.7,15.7,0,0,0,27.61,27V128.38a5.65,5.65,0,0,1-11.29,0V27a27,27,0,0,1,27-27H145.75a27,27,0,0,1,19.72,8.57l29.2,31.28a26.87,26.87,0,0,1,7.25,18.4v75.37A5.65,5.65,0,0,1,196.28,139.27Z"/><path class="cls-1" d="M140.53,187.15A5.65,5.65,0,0,1,137.06,177l68.59-53.13a5.65,5.65,0,0,1,6.92,8.93L144,186A5.61,5.61,0,0,1,140.53,187.15Z"/><path class="cls-1" d="M82.2,187.15A5.62,5.62,0,0,1,78.74,186L10.16,132.84a5.65,5.65,0,1,1,6.91-8.93L85.66,177a5.65,5.65,0,0,1-3.46,10.11Z"/></g></g></svg>