<svg xmlns="http://www.w3.org/2000/svg" viewBox="0 0 289.04 285.27"><defs><style>.cls-1{fill:#1d008e;}.cls-2{fill:#002bff;}</style></defs><g id="Capa_2" data-name="Capa 2"><g id="Capa_1-2" data-name="Capa 1"><path class="cls-1" d="M231.2,152.8a9.89,9.89,0,0,1-9.79-11.28l2.17-15.39L212.78,115a9.89,9.89,0,0,1,5.4-16.62l15.31-2.69,7.29-13.73a9.88,9.88,0,0,1,17.47,0h0l7.29,13.73,15.32,2.69a9.9,9.9,0,0,1,5.4,16.62l-10.81,11.18,2.17,15.39a9.9,9.9,0,0,1-14.14,10.28l-14-6.83-14,6.83A10,10,0,0,1,231.2,152.8ZM222.73,109l9.45,9.77a9.84,9.84,0,0,1,2.68,8.26L233,140.49l12.21-6a9.83,9.83,0,0,1,8.69,0l12.21,6L264.17,127a9.84,9.84,0,0,1,2.68-8.26L276.3,109l-13.38-2.35a9.81,9.81,0,0,1-7-5.11l-6.37-12-6.38,12a9.81,9.81,0,0,1-7,5.11Zm43.13-12.75h0Zm-17.58-9h0Z"/><path class="cls-2" d="M177,204.9a12.77,12.77,0,0,1-5.61-1.3l-24.46-12a1.48,1.48,0,0,0-1.3,0l-24.46,12a12.77,12.77,0,0,1-18.25-13.26l3.81-27a1.47,1.47,0,0,0-.4-1.23L87.37,142.58a12.77,12.77,0,0,1,7-21.46l26.82-4.7a1.5,1.5,0,0,0,1-.76l12.76-24a12.76,12.76,0,0,1,22.56,0h0l12.76,24a1.5,1.5,0,0,0,1.05.76l26.82,4.7a12.78,12.78,0,0,1,7,21.46L186.2,162.15a1.44,1.44,0,0,0-.4,1.23l3.81,27A12.77,12.77,0,0,1,177,204.9Zm-30.72-24.71a12.81,12.81,0,0,1,5.61,1.31l24.46,11.95a1.37,1.37,0,0,0,1.51-.13,1.4,1.4,0,0,0,.6-1.4l-3.81-27a12.66,12.66,0,0,1,3.46-10.66L197,134.73a1.4,1.4,0,0,0,.34-1.49,1.38,1.38,0,0,0-1.14-1l-26.82-4.71a12.65,12.65,0,0,1-9.07-6.59l-12.77-24a1.47,1.47,0,0,0-2.6,0l-12.77,24a12.67,12.67,0,0,1-9.07,6.59l-26.82,4.71a1.38,1.38,0,0,0-1.14,1,1.4,1.4,0,0,0,.34,1.49l18.93,19.57A12.68,12.68,0,0,1,117.88,165l-3.81,27a1.4,1.4,0,0,0,.6,1.4,1.37,1.37,0,0,0,1.51.13l24.46-11.95A12.78,12.78,0,0,1,146.25,180.19Z"/><path class="cls-1" d="M128,76.15a9.89,9.89,0,0,1-9.8-11.28l2.18-15.4L109.52,38.3a9.89,9.89,0,0,1,5.4-16.62L130.24,19l7.28-13.73a9.89,9.89,0,0,1,17.48,0h0L162.29,19l15.31,2.69A9.89,9.89,0,0,1,183,38.3L172.19,49.47l2.18,15.4a9.89,9.89,0,0,1-14.14,10.27l-14-6.83-14,6.83A9.79,9.79,0,0,1,128,76.15Zm18.31-19.3a9.84,9.84,0,0,1,4.35,1l12.21,6-1.9-13.46a9.82,9.82,0,0,1,2.68-8.27l9.45-9.77L159.66,30a9.84,9.84,0,0,1-7-5.1l-6.37-12-6.37,12a9.82,9.82,0,0,1-7,5.1l-13.39,2.35,9.45,9.77a9.83,9.83,0,0,1,2.69,8.27l-1.9,13.46,12.21-6A9.8,9.8,0,0,1,146.26,56.85Zm16.35-37.26h0Zm-17.58-9Z"/><path class="cls-1" d="M95.34,273.07a10,10,0,0,1-4.35-1l-14-6.83-14,6.83a9.9,9.9,0,0,1-14.14-10.27l2.18-15.4L40.28,235.22a9.9,9.9,0,0,1,5.4-16.63L61,215.91l7.29-13.74a9.9,9.9,0,0,1,17.48,0h0l7.29,13.74,15.31,2.68a9.9,9.9,0,0,1,5.4,16.63L103,246.39l2.18,15.4a9.91,9.91,0,0,1-9.79,11.28ZM77,253.77a9.84,9.84,0,0,1,4.35,1l12.21,6-1.91-13.46A9.82,9.82,0,0,1,94.36,239l9.45-9.77-13.39-2.35a9.81,9.81,0,0,1-7-5.11L77,209.8l-6.37,12a9.82,9.82,0,0,1-7,5.1l-13.39,2.35L59.68,239a9.82,9.82,0,0,1,2.69,8.26l-1.9,13.46,12.21-6A9.93,9.93,0,0,1,77,253.77Zm16.35-37.26Zm-17.59-9h0Z"/><path class="cls-1" d="M233.69,273.07a10,10,0,0,1-4.35-1l-14-6.83-14,6.83a9.9,9.9,0,0,1-14.14-10.27l2.18-15.4-10.81-11.17a9.9,9.9,0,0,1,5.4-16.63l15.32-2.68,7.28-13.74a9.87,9.87,0,0,1,8.74-5.25h0a9.87,9.87,0,0,1,8.74,5.25h0l7.29,13.74,15.31,2.68a9.9,9.9,0,0,1,5.4,16.63L241.3,246.39l2.18,15.4a9.91,9.91,0,0,1-9.79,11.28Zm-45.11-43.81L198,239a9.82,9.82,0,0,1,2.69,8.26l-1.9,13.46,12.21-6a9.83,9.83,0,0,1,8.69,0l12.21,6L230,247.29a9.81,9.81,0,0,1,2.68-8.26l9.45-9.77-13.39-2.35a9.84,9.84,0,0,1-7-5.1l-6.37-12-6.37,12a9.82,9.82,0,0,1-7,5.1Zm56.18.46h0Zm-30.62-22.25Z"/><path class="cls-1" d="M21.21,152.8a9.89,9.89,0,0,1-9.79-11.28l2.17-15.39L2.78,115A9.9,9.9,0,0,1,8.19,98.33L23.5,95.64l7.29-13.73a9.88,9.88,0,0,1,8.74-5.26h0a9.87,9.87,0,0,1,8.73,5.26l7.29,13.73,15.32,2.69A9.9,9.9,0,0,1,76.27,115L65.46,126.13l2.17,15.39A9.9,9.9,0,0,1,53.49,151.8l-14-6.83-14,6.83A10,10,0,0,1,21.21,152.8ZM12.74,109l9.45,9.77A9.84,9.84,0,0,1,24.87,127L23,140.49l12.21-6a9.83,9.83,0,0,1,8.69,0l12.21,6L54.18,127a9.84,9.84,0,0,1,2.68-8.26L66.31,109l-13.38-2.35a9.81,9.81,0,0,1-7-5.11l-6.37-12-6.38,12a9.81,9.81,0,0,1-7,5.11Zm56.17.45h0ZM38.29,87.2Z"/><path class="cls-2" d="M146.81,285.27a5.64,5.64,0,0,1-5.64-5.64V257a5.65,5.65,0,1,1,11.29,0v22.59A5.64,5.64,0,0,1,146.81,285.27Z"/><path class="cls-2" d="M273,196.4a5.61,5.61,0,0,1-2.47-.57L250.26,186a5.64,5.64,0,1,1,4.94-10.15l20.31,9.88A5.64,5.64,0,0,1,273,196.4Z"/><path class="cls-2" d="M19.49,196.4A5.65,5.65,0,0,1,17,185.68l20.32-9.88A5.64,5.64,0,0,1,42.27,186L22,195.83A5.54,5.54,0,0,1,19.49,196.4Z"/><path class="cls-2" d="M215.06,64.3A5.65,5.65,0,0,1,211,54.72l15.69-16.24a5.65,5.65,0,0,1,8.12,7.85L219.12,62.57A5.64,5.64,0,0,1,215.06,64.3Z"/><path class="cls-2" d="M74.5,63.57a5.65,5.65,0,0,1-4.06-1.72L54.74,45.61a5.65,5.65,0,1,1,8.12-7.85L78.56,54a5.65,5.65,0,0,1-4.06,9.57Z"/></g></g></svg>