<svg xmlns="http://www.w3.org/2000/svg" viewBox="0 0 291.47 257.65"><defs><style>.cls-1{fill:#1d008e;}.cls-2{fill:#002bff;}</style></defs><g id="Capa_2" data-name="Capa 2"><g id="Capa_1-2" data-name="Capa 1"><path class="cls-1" d="M242.55,253a5.64,5.64,0,0,1-5.65-5.64V182.22a5.65,5.65,0,0,1,11.29,0v65.13A5.63,5.63,0,0,1,242.55,253Z"/><path class="cls-1" d="M48.13,253a5.64,5.64,0,0,1-5.65-5.64V182.22a5.65,5.65,0,0,1,11.29,0v65.13A5.64,5.64,0,0,1,48.13,253Z"/><path class="cls-1" d="M203.63,183.5H85.15a5.65,5.65,0,0,1,0-11.3H203.63a5.65,5.65,0,0,1,0,11.3Z"/><path class="cls-1" d="M260.33,183.5h-16.6a5.65,5.65,0,1,1,0-11.3h16.6a19.87,19.87,0,0,0,19.85-19.84V72a19.87,19.87,0,0,0-19.85-19.85H31.14A19.87,19.87,0,0,0,11.29,72v80.39A19.87,19.87,0,0,0,31.14,172.2H45a5.65,5.65,0,0,1,0,11.3H31.14A31.18,31.18,0,0,1,0,152.36V72A31.18,31.18,0,0,1,31.14,40.83H260.33A31.18,31.18,0,0,1,291.47,72v80.39A31.18,31.18,0,0,1,260.33,183.5Z"/><path class="cls-1" d="M251.05,257.65H40.42A31.17,31.17,0,0,1,9.28,226.52V177.85a5.65,5.65,0,1,1,11.29,0v48.67a19.87,19.87,0,0,0,19.85,19.84H251.05a19.87,19.87,0,0,0,19.85-19.84V177.85a5.65,5.65,0,1,1,11.29,0v48.67A31.17,31.17,0,0,1,251.05,257.65Z"/><path class="cls-1" d="M203.63,52.12A5.65,5.65,0,0,1,198,46.48V18.8a7.52,7.52,0,0,0-7.51-7.51H101a7.52,7.52,0,0,0-7.51,7.51V46.48a5.65,5.65,0,0,1-11.29,0V18.8A18.82,18.82,0,0,1,101,0h89.47a18.82,18.82,0,0,1,18.8,18.8V46.48A5.64,5.64,0,0,1,203.63,52.12Z"/><path class="cls-1" d="M181.45,49.6A5.64,5.64,0,0,1,175.81,44V31H115.67V44a5.65,5.65,0,0,1-11.3,0V28.64a9.1,9.1,0,0,1,9.27-8.9h64.19a9.1,9.1,0,0,1,9.27,8.9V44A5.65,5.65,0,0,1,181.45,49.6Z"/><path class="cls-2" d="M66.64,203.31a24.19,24.19,0,0,1-24.16-24.16V161.69a5.65,5.65,0,1,1,11.29,0v17.46a12.87,12.87,0,1,0,25.73,0V161.69a5.65,5.65,0,1,1,11.29,0v17.46A24.18,24.18,0,0,1,66.64,203.31Z"/><path class="cls-2" d="M85.15,171h-37a5.65,5.65,0,0,1-5.65-5.64V137.65A5.65,5.65,0,0,1,48.13,132h37a5.65,5.65,0,0,1,5.64,5.65v27.72A5.65,5.65,0,0,1,85.15,171ZM53.77,159.72H79.5V143.29H53.77Z"/><path class="cls-2" d="M224,203.31a24.19,24.19,0,0,1-24.16-24.16V161.69a5.65,5.65,0,1,1,11.29,0v17.46a12.87,12.87,0,1,0,25.73,0V161.69a5.65,5.65,0,1,1,11.29,0v17.46A24.18,24.18,0,0,1,224,203.31Z"/><path class="cls-2" d="M242.55,171h-37a5.65,5.65,0,0,1-5.65-5.64V137.65a5.65,5.65,0,0,1,5.65-5.65h37a5.64,5.64,0,0,1,5.64,5.65v27.72A5.64,5.64,0,0,1,242.55,171Zm-31.38-11.29H236.9V143.29H211.17Z"/></g></g></svg>