<svg xmlns="http://www.w3.org/2000/svg" viewBox="0 0 222.6 243.72"><defs><style>.cls-1{fill:#1d008e;}.cls-2{fill:#002bff;}</style></defs><g id="Capa_2" data-name="Capa 2"><g id="Capa_1-2" data-name="Capa 1"><path class="cls-1" d="M104.37,243.72H29.8A29.84,29.84,0,0,1,0,213.91V29.8A29.84,29.84,0,0,1,29.8,0H145.86a29.91,29.91,0,0,1,21.79,9.47l33.07,35.42a29.73,29.73,0,0,1,8,20.34V96.47a5.65,5.65,0,0,1-11.3,0V65.23a18.46,18.46,0,0,0-5-12.63L159.39,17.17a18.6,18.6,0,0,0-13.53-5.88H29.8A18.54,18.54,0,0,0,11.29,29.8V213.91A18.53,18.53,0,0,0,29.8,232.42h74.57a5.65,5.65,0,0,1,0,11.3Z"/><path class="cls-1" d="M196.79,63.55H168a22.81,22.81,0,0,1-22.78-22.79V11a5.65,5.65,0,0,1,11.29,0V40.76A11.5,11.5,0,0,0,168,52.25h28.82a5.65,5.65,0,0,1,0,11.3Z"/><path class="cls-2" d="M83.48,65.75h-42a5.65,5.65,0,0,1,0-11.3h42a5.65,5.65,0,0,1,0,11.3Z"/><path class="cls-2" d="M165.61,98.35H41.47a5.65,5.65,0,0,1,0-11.3H165.61a5.65,5.65,0,0,1,0,11.3Z"/><path class="cls-2" d="M148.08,130.94H41.47a5.65,5.65,0,0,1,0-11.29H148.08a5.65,5.65,0,1,1,0,11.29Z"/><path class="cls-2" d="M138.49,242.53a5.65,5.65,0,0,1-5.64-5.59l-.32-32.15a5.65,5.65,0,0,1,.82-3l47.23-77.31a22.67,22.67,0,0,1,38.7,23.64l-47.22,77.31a5.61,5.61,0,0,1-2.29,2.11L141,241.93A5.6,5.6,0,0,1,138.49,242.53Zm5.35-36.23.21,21.48,19.21-9.61,46.39-75.94a11.38,11.38,0,0,0-19.43-11.87Zm23.4,16.19Z"/><path class="cls-2" d="M46.41,209.88a5.64,5.64,0,0,1-5.49-7L50.18,165a5.65,5.65,0,0,1,11.13,1.12A88.36,88.36,0,0,0,63.13,180c1.93,8.67,4.36,10.68,4.86,10.71,3.64.24,5.24-5.73,5.25-5.79a5.65,5.65,0,0,1,11.11.7c.27,2.21,1.46,4.71,2.08,4.78,4.63.51,20.93,0,26.83-.2a5.64,5.64,0,1,1,.44,11.28c-2.26.09-22.21.84-28.52.14a11.43,11.43,0,0,1-7.08-3.49A14.24,14.24,0,0,1,67.25,202c-5.1-.33-9.13-3.67-12-9.95l-3.32,13.57A5.65,5.65,0,0,1,46.41,209.88Z"/></g></g></svg>