<svg xmlns="http://www.w3.org/2000/svg" viewBox="0 0 208.74 243.72"><defs><style>.cls-1{fill:#1d008e;}.cls-2{fill:#002bff;}</style></defs><g id="Capa_2" data-name="Capa 2"><g id="Capa_1-2" data-name="Capa 1"><path class="cls-1" d="M95.37,243.72H29.8A29.84,29.84,0,0,1,0,213.91V29.8A29.84,29.84,0,0,1,29.8,0H145.86a29.91,29.91,0,0,1,21.79,9.47l33.07,35.42a29.73,29.73,0,0,1,8,20.34V133.3a5.65,5.65,0,0,1-11.3,0V65.23a18.42,18.42,0,0,0-5-12.63L159.39,17.17a18.6,18.6,0,0,0-13.53-5.88H29.8A18.54,18.54,0,0,0,11.29,29.8V213.91A18.53,18.53,0,0,0,29.8,232.42H95.37a5.65,5.65,0,0,1,0,11.3Z"/><path class="cls-1" d="M196.79,63.55H168a22.81,22.81,0,0,1-22.78-22.79V11a5.65,5.65,0,0,1,11.29,0V40.76A11.5,11.5,0,0,0,168,52.25h28.82a5.65,5.65,0,0,1,0,11.3Z"/><path class="cls-2" d="M83.48,65.75h-42a5.65,5.65,0,0,1,0-11.3h42a5.65,5.65,0,0,1,0,11.3Z"/><path class="cls-2" d="M165.62,98.35H41.47a5.65,5.65,0,0,1,0-11.3H165.62a5.65,5.65,0,0,1,0,11.3Z"/><path class="cls-2" d="M148.08,131H41.47a5.65,5.65,0,0,1,0-11.3H148.08a5.65,5.65,0,0,1,0,11.3Z"/><path class="cls-2" d="M94.78,163.54H41.47a5.65,5.65,0,0,1,0-11.29H94.78a5.65,5.65,0,1,1,0,11.29Z"/><path class="cls-2" d="M165.7,227.52a43.81,43.81,0,0,1-5.23-.31,43,43,0,1,1,5.23.31Zm-.11-74.72a31.73,31.73,0,1,0,3.82.23A30.83,30.83,0,0,0,165.59,152.8Z"/><path class="cls-2" d="M119.77,235.28a5.64,5.64,0,0,1-4.1-9.52l18.53-19.64a5.65,5.65,0,1,1,8.21,7.76l-18.53,19.63A5.62,5.62,0,0,1,119.77,235.28Z"/></g></g></svg>