<svg xmlns="http://www.w3.org/2000/svg" viewBox="0 0 280.35 217.25"><defs><style>.cls-1{fill:#1d008e;}.cls-2{fill:#002bff;}</style></defs><g id="Capa_2" data-name="Capa 2"><g id="Capa_1-2" data-name="Capa 1"><path class="cls-1" d="M128.16,217.25a5.64,5.64,0,0,1-5.64-5.65V180.68a30.64,30.64,0,0,0-30.6-30.6h-50a30.64,30.64,0,0,0-30.6,30.6V211.6A5.65,5.65,0,1,1,0,211.6V180.68a41.94,41.94,0,0,1,41.89-41.89h50a41.94,41.94,0,0,1,41.89,41.89V211.6A5.65,5.65,0,0,1,128.16,217.25Z"/><path class="cls-1" d="M68.89,150.08a32.75,32.75,0,1,1,32.75-32.75A32.79,32.79,0,0,1,68.89,150.08Zm0-54.21a21.46,21.46,0,1,0,21.46,21.46A21.49,21.49,0,0,0,68.89,95.87Z"/><path class="cls-1" d="M274.71,217.25a5.65,5.65,0,0,1-5.65-5.65V180.68a30.64,30.64,0,0,0-30.6-30.6h-50a30.63,30.63,0,0,0-30.59,30.6V211.6a5.65,5.65,0,1,1-11.3,0V180.68a41.94,41.94,0,0,1,41.89-41.89h50a41.94,41.94,0,0,1,41.89,41.89V211.6A5.65,5.65,0,0,1,274.71,217.25Z"/><path class="cls-1" d="M215.43,150.08a32.75,32.75,0,1,1,32.75-32.75A32.79,32.79,0,0,1,215.43,150.08Zm0-54.21a21.46,21.46,0,1,0,21.46,21.46A21.48,21.48,0,0,0,215.43,95.87Z"/><path class="cls-2" d="M117.5,85.44a35.91,35.91,0,0,1,0-71.81h19.33a5.65,5.65,0,1,1,0,11.29H117.5a24.61,24.61,0,0,0,0,49.22,5.65,5.65,0,1,1,0,11.3Z"/><path class="cls-2" d="M161.48,85.44h-22a5.65,5.65,0,0,1,0-11.3h22a24.61,24.61,0,1,0,0-49.22,5.65,5.65,0,1,1,0-11.29,35.91,35.91,0,1,1,0,71.81Z"/><path class="cls-2" d="M152.44,99.22a5.63,5.63,0,0,1-4-1.65L134.74,83.86a5.65,5.65,0,0,1,0-8l13.71-13.71a5.65,5.65,0,1,1,8,8l-9.71,9.71,9.71,9.71a5.65,5.65,0,0,1-4,9.64Z"/><path class="cls-2" d="M128.32,38.7a5.65,5.65,0,0,1-4-9.64L134,19.35l-9.71-9.71a5.65,5.65,0,1,1,8-8L146,15.36a5.65,5.65,0,0,1,0,8L132.31,37.05A5.63,5.63,0,0,1,128.32,38.7Z"/></g></g></svg>