 <!DOCTYPE svg PUBLIC "-//W3C//DTD SVG 1.1//EN" "http://www.w3.org/Graphics/SVG/1.1/DTD/svg11.dtd">
<svg id="e0dde367-83fa-4680-b0da-70d022910805" data-name="Layer 1" xmlns="http://www.w3.org/2000/svg" xmlns:xlink="http://www.w3.org/1999/xlink" width="865.76" height="682.89" viewBox="0 0 865.76 682.89">
<defs>
<linearGradient id="ffd65cad-64d0-4e53-a42e-d4b940121073" x1="797.17" y1="192.2" x2="798.92" y2="192.2" gradientUnits="userSpaceOnUse">
<stop offset="0" stop-color="#ffdc17"/>
<stop offset="0.52" stop-color="#fdbf20"/>
<stop offset="1" stop-color="#faa02a"/>
</linearGradient>
<style xmlns="http://www.w3.org/1999/xhtml">*, ::after, ::before { box-sizing: border-box; }
img, svg { vertical-align: middle; }
</style>
<style xmlns="http://www.w3.org/1999/xhtml">*, body, html { -webkit-font-smoothing: antialiased; }
img, svg { max-width: 100%; }
</style>
</defs>
<path d="M633.28,315.59s-5.07,1.82-4.36,4.1,8.25,11.39,9.33,11.61c2.84.56,6.07-2.8,6.07-2.8Z" fill="#f9b499"/>
<path d="M623.82,298.51s4.13,4.55,7.67,4c6-.93,9.57-2.66,11.45.5,2.15,3.63,14.5,20.94,11.77,23.56s-12.13,7.36-15.42,3.82c-3.45-3.71-5.6-7.93-10.39-12.7-4.39-4.36-8.93.92-15.62-4.64C611.1,311.24,615.82,296.23,623.82,298.51Z" fill="#f9b499"/>
<path d="M662.41,321.15c-2.79,5.55-14.69,10.77-11.43,7.51s.28-13.43-2.27-16.13-10,3.46-13.16,1.47,6-4.34,10.3-10.13c3-4,10.09,1.65,14.19,2.41l3.3-.48L665.12,320Z" fill="#f9b499"/>
<path d="M471.39,599l-6.82,23.67s17.88,5.8,18.2,5.69,7.46-22.57,7.46-22.57Z" fill="#f9b499"/>
<polygon points="574.88 605.67 573.62 633.72 592.2 632.95 593.69 607.96 574.88 605.67" fill="#f9b499"/>
<path d="M551.46,239.3c-11.56,10.28-64.33-40.86-44.71-44.21,10.06-1.72,11.7-11.62,10.9-20.86,0-.16,0-.32,0-.48A76.78,76.78,0,0,0,514,157.26c13-16.9,28.94-11.62,24.61,12.29a75.8,75.8,0,0,0-1.57,14c0,.16,0,.32,0,.47.36,9.29,5.68,10.84,16.47,14.24C568.22,202.91,563,229,551.46,239.3Z" fill="#f9b499"/>
<path d="M594.86,338c-4.15.44-8.1,2.06-12.24,3.06,4.76,9.82,1.63,16.66,9.49,23C600.18,370.54,601.35,364.54,594.86,338Z" fill="#f9b499"/>
<path d="M593.1,327.89c-9.25-35.18-6.13-94.1-22.93-117.64-9-12.62-30-18.51-30-18.51C520.91,198.94,571.78,324,579.37,337c.86,1.48,1.92,3.67,2.54,4.85,4.2-.84,9.92-2.23,14-3.47C595.25,335.51,594,331.21,593.1,327.89Z" fill="#0071f2" data-primary="true"/>
<path d="M593.1,327.89c-9.25-35.18-6.13-94.1-22.93-117.64-9-12.62-30-18.51-30-18.51C520.91,198.94,571.78,324,579.37,337c.86,1.48,1.92,3.67,2.54,4.85,4.2-.84,9.92-2.23,14-3.47C595.25,335.51,594,331.21,593.1,327.89Z" opacity="0.2"/>
<polygon points="618.9 336.23 537.9 350.83 533.25 351.67 519.84 295.64 608.53 279.51 618.9 336.23" fill="#e6e6e6"/>
<path d="M618.9,336.23l-81,14.6c82-17.21,71.6-66.05,71.6-66.05Z" fill="#dedede"/>
<path d="M582,346.7c12.6,5.91,26.39,96.13,26.37,122.42,0,10.59-13.51,147.93-13.51,147.93H572.76s2-117.45-.13-131.78c-2.17-14.6-50.52-136.84-50.52-136.84Z" fill="#2f2e41" data-secondary="true"/>
<path d="M506,351.32s-7.82,11.13-9,40.25,14.17,50,4.72,88.17S467.4,606.56,467.4,606.56l22.83,6.65s46.14-124.41,49.68-134.65S564.37,346.7,564.37,346.7Z" fill="#2f2e41" data-secondary="true"/>
<path d="M541.58,192s28.63,11.38,34,44.24-1.63,39.35,3.5,67.18,14.5,51.09,3.06,54.63-72.93,5.37-79.55,1.58-4.42-60-8.61-74-24.32-71.34-7.15-86.94c8.5-7.72,27.9-8.46,27.9-8.46S529.17,212.86,541.58,192Z" fill="#0071f2" data-primary="true"/>
<polygon points="536.2 198.25 559.71 306.18 554.21 320.56 543.25 307.04 528.52 200.24 536.2 198.25" fill="#d3d3d3"/>
<polygon points="514.77 190.25 532.71 199.16 524.49 204.64 512.2 191.68 514.77 190.25" fill="#dedede"/>
<polygon points="532.71 199.16 539.11 190.71 541.77 192.11 540.54 201.88 532.71 199.16" fill="#dedede"/>
<path d="M483.34,217.24S537.77,297,559.4,300.38s62.46,18.72,62.46,18.72l6-20.42s-55.63-19.52-56.42-20.09,3.15,2.85-1.58-1.16-42.45-80.23-66-83.21C483,191.58,478.73,210.65,483.34,217.24Z" fill="#0071f2" data-primary="true"/>
<path d="M483.34,217.24S537.77,297,559.4,300.38s62.46,18.72,62.46,18.72l6-20.42s-55.63-19.52-56.42-20.09,3.15,2.85-1.58-1.16-42.45-80.23-66-83.21C483,191.58,478.73,210.65,483.34,217.24Z" opacity="0.2"/>
<path d="M706.26,613c.09-.06,0-11.6,0-11.6h18.52a42.83,42.83,0,0,0,.34,15.81Z" fill="#f9b499"/>
<path d="M815.2,618.54a42.84,42.84,0,0,1-.34-15.81H796.35s1.5,9.32.23,11.34a1,1,0,0,1-.23.26Z" fill="#f9b499"/>
<path d="M743.64,208.22c-1.14.63-23.86,27-36.39,77.75,0,0-30.79,20.42-45.77,18.38,0,0,1.58,19.75,3.13,19.48s56.48-8.27,63.68-20.36,45-77.06,36.75-90S755.84,201.49,743.64,208.22Z" fill="#0071f2" data-primary="true"/>
<path d="M729.34,356.1S708.51,443,707.06,464.35c-1.33,19.54-5.46,112.62-3,141.94h22.52s9.67-85.48,9-116l59.07-128.92Z" fill="#2f2e41" data-secondary="true"/>
<path d="M811.16,353c26.51,20.9-.39,71.93,7,146.3,3.49,35.27-1.16,107-1.16,107H793.84L782.55,479.64C782.24,468.1,756,353,756,353Z" fill="#2f2e41" data-secondary="true"/>
<path d="M799.08,192l.43,0-.47.05Z" fill="#f09898"/>
<path d="M798.92,192.06l-1.75.28C797.75,192.23,798.33,192.14,798.92,192.06Z" fill="url(#ffd65cad-64d0-4e53-a42e-d4b940121073)"/>
<path d="M746.9,232.77s-24-23.36-9.89-44.49c0,0-30.79-53-1.61-60.5,0,0-2.37-39.36,31.75-38.41S814.07,128,814.07,128s32.47,7.14,16.38,50.65c0,0,20.27,52.21-8.31,75.68S746.9,232.77,746.9,232.77Z" fill="#2f2e41" data-secondary="true"/>
<path d="M806.82,212.25c-2.86,20.53-49.17,10.53-55.19-1s12.57-16.17,15-22.38c1-2.66.78-5.93.16-8.8a34.79,34.79,0,0,0-2.32-6.91c-4.79-21.82,22-12.5,22-12.5a20.41,20.41,0,0,0-1.89,6.77c-.89,9,4.27,17,8.25,20.78C798.38,193.6,809.68,191.72,806.82,212.25Z" fill="#f9b499"/>
<path d="M761.27,194.4s-27.89,7-31.6,29.24,9.89,46.48,6.18,68.57-19.63,74-3.19,74.74,86.6,3.71,88.72-3-12-58.49-9.9-73.51,17-92.65-3.74-97.93S760,215.18,760,215.18,748.56,206.21,761.27,194.4Z" fill="#0071f2" data-primary="true"/>
<path d="M768.7,380.56c6.21-.36,11.25-9.84,13.82-17.66,2.35-7.19,1.05-9.36,9.19-18.53l-16-2.84s-2.94,13.69-9.47,17.36c-4.61,2.58-8,10.34-8.22,16.39a2.07,2.07,0,0,0,.88,1.77C760.69,378.26,764.87,380.78,768.7,380.56Z" fill="#f9b499"/>
<path d="M771.92,346.8,790.65,350s16.27-49.64,18.87-67.59,20.13-77.9,3.57-87.75c-10.75-6.39-28.25-3-26.93,40.83S785.71,321.36,771.92,346.8Z" fill="#0071f2" data-primary="true"/>
<path d="M771.92,346.8,790.65,350s16.27-49.64,18.87-67.59,20.13-77.9,3.57-87.75c-10.75-6.39-28.25-3-26.93,40.83S785.71,321.36,771.92,346.8Z" opacity="0.2"/>
<path d="M241.22,54.62c-4.84-22.87-15.39-37.26-23.61-37.08s-17.94,14.62-22.08,37.08a123,123,0,0,0-1.82,16.18h49.83A118.35,118.35,0,0,0,241.22,54.62ZM218.64,30.07a7.48,7.48,0,1,1-7.49,7.49A7.48,7.48,0,0,1,218.64,30.07Z" fill="#d1d3d4"/>
<rect x="22.38" y="85.8" width="397.77" height="572.39" fill="#fff"/>
<path d="M427.5,665.53H15V78.46H427.5ZM29.72,650.85h383.1V93.15H29.72Z" fill="#d1d3d4"/>
<rect x="161.5" y="67.86" width="117.07" height="36.89" fill="#d1d3d4"/>
<path d="M157.19,165.05a13.91,13.91,0,0,1-14-13.87,13.73,13.73,0,0,1,13.69-13.69,13.54,13.54,0,0,1,12.61,8.11H164a8,8,0,0,0-7-3.35,8.74,8.74,0,0,0-8.83,9,9.06,9.06,0,0,0,8.94,9.07c2.55,0,4.43-.86,6.59-3.13h5.8A13.16,13.16,0,0,1,157.19,165.05Z" fill="#e4e4e4"/>
<path d="M182.77,165.05a10.45,10.45,0,1,1,10.63-10.3A10.53,10.53,0,0,1,182.77,165.05Zm0-16.5a6.06,6.06,0,1,0,5.8,6A5.92,5.92,0,0,0,182.77,148.55Z" fill="#e4e4e4"/>
<path d="M209.94,164.58v-9.76c0-5.33-1.44-6.27-3.82-6.27a4,4,0,0,0-3.53,1.84c-.61,1-.79,2.12-.79,4.79v9.4H197v-20h4.44v1.91a7.39,7.39,0,0,1,5.62-2.37,7.17,7.17,0,0,1,6.23,2.88c1.08,1.55,1.44,3.28,1.44,6.84v10.7Z" fill="#e4e4e4"/>
<path d="M225,149v15.6h-4.79V149H217.9v-4.36h2.34V138H225v6.66h2.89V149Z" fill="#e4e4e4"/>
<path d="M236,153.49v11.09h-4.79v-20h4.4v1.95c1.26-1.84,2.27-2.41,4.32-2.41h.36v4.61C237.43,148.84,236,150.39,236,153.49Z" fill="#e4e4e4"/>
<path d="M258.76,164.58V162a8,8,0,0,1-6.63,3.06c-5.84,0-10.06-4.36-10.06-10.38s4.26-10.51,10.16-10.51a7.42,7.42,0,0,1,6.53,3.13v-2.67h4.39v20Zm-6-16c-3.42,0-5.84,2.59-5.84,6.23a5.86,5.86,0,1,0,11.71,0C258.61,151.11,256.16,148.55,252.74,148.55Z" fill="#e4e4e4"/>
<path d="M277.42,165.05a10.53,10.53,0,0,1-10.67-10.45,10.57,10.57,0,0,1,20.57-3.31h-5.4a4.84,4.84,0,0,0-4.65-2.74c-3.31,0-5.69,2.52-5.69,6a5.81,5.81,0,0,0,5.8,6.09,5,5,0,0,0,4.54-2.63h5.4A10.15,10.15,0,0,1,277.42,165.05Z" fill="#e4e4e4"/>
<path d="M297.09,149v15.6H292.3V149H290v-4.36h2.34V138h4.79v6.66H300V149Z" fill="#e4e4e4"/>
<path d="M161.22,209.65h-72a4,4,0,0,1-4-4h0a4,4,0,0,1,4-4h72.05a4,4,0,0,1,4,4h0A4,4,0,0,1,161.22,209.65Z" fill="#e1e1e1"/>
<path d="M361.38,554.87H289.32a4,4,0,0,1-4-4h0a4,4,0,0,1,4-4h72.06a4,4,0,0,1,4,4h0A4,4,0,0,1,361.38,554.87Z" fill="#e1e1e1"/>
<path d="M361.38,257.69H89.17a4,4,0,0,1-4-4h0a4,4,0,0,1,4-4H361.38a4,4,0,0,1,4,4h0A4,4,0,0,1,361.38,257.69Z" fill="#e4e4e4"/>
<path d="M361.38,279.12H89.17a4,4,0,0,1-4-4h0a4,4,0,0,1,4-4H361.38a4,4,0,0,1,4,4h0A4,4,0,0,1,361.38,279.12Z" fill="#e4e4e4"/>
<path d="M361.38,300.55H89.17a4,4,0,0,1-4-4h0a4,4,0,0,1,4-4H361.38a4,4,0,0,1,4,4h0A4,4,0,0,1,361.38,300.55Z" fill="#e4e4e4"/>
<path d="M361.38,322H89.17a4,4,0,0,1-4-4h0a4,4,0,0,1,4-4H361.38a4,4,0,0,1,4,4h0A4,4,0,0,1,361.38,322Z" fill="#e4e4e4"/>
<path d="M361.38,343.4H89.17a4,4,0,0,1-4-4h0a4,4,0,0,1,4-4H361.38a4,4,0,0,1,4,4h0A4,4,0,0,1,361.38,343.4Z" fill="#e4e4e4"/>
<path d="M361.38,364.83H89.17a4,4,0,0,1-4-4h0a4,4,0,0,1,4-4H361.38a4,4,0,0,1,4,4h0A4,4,0,0,1,361.38,364.83Z" fill="#e4e4e4"/>
<path d="M361.38,386.26H89.17a4,4,0,0,1-4-4h0a4,4,0,0,1,4-4H361.38a4,4,0,0,1,4,4h0A4,4,0,0,1,361.38,386.26Z" fill="#e4e4e4"/>
<path d="M361.38,407.69H89.17a4,4,0,0,1-4-4h0a4,4,0,0,1,4-4H361.38a4,4,0,0,1,4,4h0A4,4,0,0,1,361.38,407.69Z" fill="#e4e4e4"/>
<rect x="85.16" y="421.12" width="280.22" height="8.01" rx="2.92" fill="#e4e4e4"/>
<path d="M361.38,450.55H89.17a4,4,0,0,1-4-4h0a4,4,0,0,1,4-4H361.38a4,4,0,0,1,4,4h0A4,4,0,0,1,361.38,450.55Z" fill="#e4e4e4"/>
<path d="M361.38,472H89.17a4,4,0,0,1-4-4h0a4,4,0,0,1,4-4H361.38a4,4,0,0,1,4,4h0A4,4,0,0,1,361.38,472Z" fill="#e4e4e4"/>
<path d="M361.38,493.41H133.77a4,4,0,0,1-4-4h0a4,4,0,0,1,4-4H361.38a4,4,0,0,1,4,4h0A4,4,0,0,1,361.38,493.41Z" fill="#e4e4e4"/>
<path d="M363.38,617.16H223.27a2,2,0,0,1-2-2h0a2,2,0,0,1,2-2H363.38a2,2,0,0,1,2,2h0A2,2,0,0,1,363.38,617.16Z" fill="#e1e1e1"/>
<rect x="164.58" y="506.83" width="200.8" height="8.01" rx="2.92" fill="#e4e4e4"/>
<circle cx="113.21" cy="579.13" r="35.37" transform="translate(-476.44 556.25) rotate(-76.72)" fill="#e4e4e4"/>
<path d="M459.74,637.33l2.62.86h0l1.35.45,4.39,1.45,22.14,7.29,6.32,2.08.72.24.12-.37,0-.1c.19-.61.36-1.23.49-1.85a15.34,15.34,0,0,0-.42-7.58,15.76,15.76,0,0,0-.63-1.66c-.1-.22-.2-.44-.31-.66a15.26,15.26,0,0,0-8.92-7.68h0l-3.09-6.47-3.89-.87-1.78.12-1.2.08-9,.61-.68.05-3.28-1.08-1.2,3.64-1.76,5.35-.67,2Z" fill="#0071f2" data-primary="true"/>
<path d="M573.62,633.48v15.89h39.53v-.5a15.39,15.39,0,0,0-15.38-15.39h0L592.5,628,589,629.2l-11.32,4-.62.25Z" fill="#0071f2" data-primary="true"/>
<path d="M728.84,646.29H719L717.25,637l-4.49,9.28H686.69a5.86,5.86,0,0,1-3.33-10.68l20.82-14.38v-9.38l21.9,1.3Z" fill="#0071f2" data-primary="true"/>
<path d="M818.7,646.44l-9.83-.12-1.64-9.3-4.61,9.22-26.06-.33a5.86,5.86,0,0,1-3.2-10.72l21-14.12.11-9.38,21.88,1.58Z" fill="#0071f2" data-primary="true"/>
<path d="M517.43,183.23a43.39,43.39,0,0,0,.32-5.95s8.62,8.27,19.25,6.73C537,184,530.8,189.58,517.43,183.23Z" fill="#f4a48e" style="isolation:isolate"/>
<ellipse cx="531.07" cy="143.27" rx="28.65" ry="41.35" transform="translate(-7.29 30.43) rotate(-3.26)" fill="#f9b499"/>
<path d="M506,161.74l2.49-11s-6.95-5.81-4.7-12.32c1.73-5,7.35-.47,7.35-.47s5.15-7.83,7-13.25c0,0,21.24,2.12,30.86-5.89,1.36.39,9.57,9.31,9.66,14.48,0,0,11.85-14.41,11.59-27.52-.36-18.48-84-21.73-74,9.94C496.15,115.69,466.29,131.44,506,161.74Z" fill="#2f2e41" data-secondary="true"/>
<path d="M767.27,184.29s-.52-5.61-1.38-7.54a28.66,28.66,0,0,0,18.6-5.86S776.36,183.58,767.27,184.29Z" fill="#f4a48e" style="isolation:isolate"/>
<ellipse cx="768.83" cy="144.47" rx="23.85" ry="35.03" fill="#f9b499"/>
<path d="M742,109.43s12.92,26.86,55.17,20.86L796,114.86l-24.1-12.57Z" fill="#2f2e41" data-secondary="true"/>
<ellipse cx="793.81" cy="142.9" rx="5.11" ry="8.47" fill="#f9b499"/>
</svg>