<?xml version="1.0" encoding="utf-8"?>
<!-- Generator: Adobe Illustrator 24.1.1, SVG Export Plug-In . SVG Version: 6.00 Build 0)  -->
<svg version="1.1" id="Capa_1" xmlns="http://www.w3.org/2000/svg" xmlns:xlink="http://www.w3.org/1999/xlink" x="0px" y="0px"
	 viewBox="0 0 200 153.3" style="enable-background:new 0 0 200 153.3;" xml:space="preserve">
<style type="text/css">
	.st0{fill:#11DFC3;}
</style>
<g>
	<path class="st0" d="M196.4,21.2L178.8,3.6c-2.4-2.4-5.3-3.6-8.8-3.6s-6.4,1.2-8.8,3.6L76.7,88.4L38.7,50.4
		c-2.4-2.4-5.3-3.6-8.8-3.6s-6.4,1.2-8.8,3.6L3.6,67.9C1.2,70.3,0,73.2,0,76.7s1.2,6.4,3.6,8.8l46.7,46.7l17.5,17.5
		c2.4,2.4,5.3,3.6,8.8,3.6s6.4-1.2,8.8-3.6l17.5-17.5l93.4-93.4c2.4-2.4,3.6-5.3,3.6-8.8C200,26.5,198.8,23.6,196.4,21.2z"/>
</g>
</svg>
