<?xml version="1.0" encoding="utf-8"?>
<!-- Generator: Adobe Illustrator 24.1.1, SVG Export Plug-In . SVG Version: 6.00 Build 0)  -->
<svg version="1.1" id="Capa_1" xmlns="http://www.w3.org/2000/svg" xmlns:xlink="http://www.w3.org/1999/xlink" x="0px" y="0px"
	 viewBox="0 0 200 126.1" style="enable-background:new 0 0 200 126.1;" xml:space="preserve">
<style type="text/css">
	.st0{opacity:0.83;}
	.st1{fill:#11DFC3;}
</style>
<g id="down" transform="translate(0 -82.226)" class="st0">
	<path id="Trazado_29" class="st1" d="M195.3,96.6l-9.6-9.6c-3.1-3.1-7.3-4.8-11.7-4.7c-4.3-0.1-8.5,1.6-11.6,4.7L100,149.4L37.6,87
		c-3-3.1-7.2-4.8-11.6-4.7c-4.4,0-8.6,1.7-11.7,4.7l-9.5,9.6c-3.2,3.1-4.9,7.3-4.9,11.7c-0.1,4.4,1.7,8.6,4.9,11.5l83.6,83.6
		c3,3.2,7.2,5,11.6,4.9c4.4,0,8.6-1.7,11.7-4.9l83.6-83.6c3.1-3,4.8-7.2,4.7-11.5C200,104,198.3,99.7,195.3,96.6z"/>
</g>
</svg>
