<?xml version="1.0" encoding="utf-8"?>
<!-- Generator: Adobe Illustrator 24.1.1, SVG Export Plug-In . SVG Version: 6.00 Build 0)  -->
<svg version="1.1" id="Capa_1" xmlns="http://www.w3.org/2000/svg" xmlns:xlink="http://www.w3.org/1999/xlink" x="0px" y="0px"
	 viewBox="0 0 183.5 33.6" style="enable-background:new 0 0 183.5 33.6;" xml:space="preserve">
<style type="text/css">
	.st0{fill:#FFFFFF;}
	.st1{enable-background:new    ;}
</style>
<g id="Grupo_22" transform="translate(-48 -96.41)">
	<path id="Trazado_9" class="st0" d="M75,97.3c0.8,0.2,1.1,0.5,1,1.4l-0.8,4.7c0,0.4-0.3,0.7-0.7,0.7c0,0,0,0,0,0H64.2
		c-2.1,0-3.6,0.6-4.5,1.9c-0.8,1.2-1.6,3.6-2.1,7.2c-0.6,3.4-0.7,5.8-0.2,7.2c0.5,1.3,1.8,2,3.9,2h4.1l1.3-8.1
		c0-0.4,0.3-0.7,0.6-0.7c0,0,0,0,0.1,0h7c0.4,0,0.6,0.3,0.5,0.7l-1.8,11.3c0,0.5-0.2,0.9-0.5,1.3c-0.7,0.9-2.3,1.6-4.6,2.3
		c-2.6,0.7-5.3,1-8,0.9c-5.5,0-9.1-1.2-10.6-3.5c-1.5-2.3-1.8-6.8-0.8-13.3c1-6.7,2.3-10.6,5-13.3s6.1-3.5,11.8-3.5
		C68.6,96.3,71.9,96.6,75,97.3z"/>
	<path id="Trazado_10" class="st0" d="M99.2,108c1.2,1.6,1.5,4.9,0.7,9.8l-0.2,1.3c-0.1,0.8-0.5,1.1-1.3,1.1h-13
		c-0.2,1.2,0,1.9,0.4,2.2c1,0.4,2,0.5,3.1,0.4h8c0.4,0,0.6,0.2,0.5,0.6l-0.8,5c0,0.4-0.3,0.7-0.7,0.7c-3,0.6-6.1,0.8-9.1,0.8
		c-9,0-11.1-2.4-9.5-12.2c0.8-4.9,2.1-8.1,3.9-9.8s5-2.5,9.5-2.5C95.1,105.6,98,106.4,99.2,108z M86,115.5h5.9
		c0.3-2.1-0.5-2.8-2.4-2.8C87.5,112.7,86.3,113.7,86,115.5L86,115.5z"/>
	<path id="Trazado_11" class="st0" d="M121.8,106.4c0.5,0.1,0.6,0.4,0.6,0.7l-0.7,4.5c-0.1,0.5-0.3,0.7-0.8,0.7h-7.4
		c-1.2,0-1.9,0.3-2,0.9l0,0.3c0,0.5,0.3,0.7,1.3,1l4.9,1.6c2.9,0.9,4.1,3.1,3.5,6.7l-0.1,0.8c-0.8,5-5.4,6.6-10.3,6.6
		c-3.2,0-6.4-0.1-9.6-0.4c-0.5,0-0.7-0.1-0.6-0.6l0.8-4.9c0.1-0.5,0.3-0.7,0.8-0.7h9.4c1,0,1.5-0.2,1.6-0.7l0-0.2
		c0-0.5-0.4-0.7-2-1.3l-4.2-1.4c-2.9-0.9-4-3.2-3.5-6.7l0.1-0.7c0.7-4.6,4.6-6.8,11.6-6.8C117.4,105.6,119.6,105.9,121.8,106.4z"/>
	<path id="Trazado_12" class="st0" d="M136.9,99.2c0.4-0.1,0.6,0.2,0.5,0.7l-1,6.1h3.3c0.5,0,0.7,0.2,0.7,0.6l-0.8,4.7
		c-0.1,0.4-0.4,0.7-0.9,0.7c0,0,0,0,0,0h-3.4l-1.4,8.9c-0.3,1.7,0.3,2,1.9,2h1.5c0.5,0,0.7,0.2,0.7,0.7l-0.8,5
		c-0.1,0.5-0.4,0.9-0.9,0.9c-1.6,0.3-3.2,0.5-4.8,0.5c-0.9,0-1.7,0-2.6-0.1c-0.7,0-1.4-0.2-2.1-0.5c-1.5-0.6-2.2-2.3-1.7-5.4l1.9-12
		h-2.5c-0.5,0-0.7-0.2-0.6-0.7l0.8-4.7c0-0.4,0.3-0.6,0.8-0.6h2.5l0.7-4.3c0-0.3,0.3-0.5,0.8-0.7L136.9,99.2z"/>
	<path id="Trazado_14" class="st0" d="M169.5,100.4c1.8,2.6,2.2,7,1.2,12.9c-0.9,5.9-2.7,10.2-5.3,12.8c-2.6,2.6-6.4,3.9-11.5,3.9
		c-4.3,0-8.5-0.2-12.6-0.6c-0.4-0.1-0.6,0-0.5-0.5l5-31.4c0-0.3,0.3-0.5,0.7-0.5c4.2-0.4,8.5-0.6,12.8-0.6
		C164.4,96.4,167.8,97.7,169.5,100.4z M153.5,104.1l-2.9,18.3h4.6c3.8,0,5.6-2.6,6.6-9c1-6.5,0.1-9.2-3.7-9.2H153.5z"/>
	<path id="Trazado_15" class="st0" d="M196,117.8c-0.8,5-1.8,7.8-3.9,9.8c-2.1,1.9-4.8,2.4-9.6,2.4c-4.6,0-7.6-0.8-8.9-2.4
		c-1.3-1.6-1.5-4.9-0.8-9.8c1.8-10.1,4-12,13.5-12.2C195.7,105.7,197.5,108,196,117.8z M182.5,113.7c-0.7,1.3-1.2,2.7-1.3,4.1
		c-0.3,1.3-0.3,2.7,0,4.1c0.3,0.7,1.1,1,2.4,1c1,0.1,2-0.3,2.8-1c0.8-1.2,1.2-2.6,1.3-4.1c0.3-2.1,0.3-3.4,0-4.1
		c-0.3-0.7-1.1-1-2.4-1C184.2,112.6,183.2,113,182.5,113.7L182.5,113.7z"/>
	<path id="Trazado_16" class="st0" d="M219.5,106.4c0.4,0.1,0.7,0.5,0.6,0.9c0,0,0,0,0,0.1l-0.8,4.8c0,0.4-0.4,0.7-0.8,0.7
		c0,0,0,0,0,0h-7.3c-1-0.1-2,0.3-2.8,1c-0.7,1.2-1.2,2.6-1.3,4.1c-0.3,1.3-0.4,2.7,0,4.1c0.3,0.7,1.2,1,2.5,1h7.3
		c0.5,0,0.7,0.2,0.7,0.7l-0.8,4.8c-0.1,0.5-0.5,0.8-0.9,0.9c-2.4,0.6-4.9,0.8-7.5,0.8c-4.9,0-7.5-0.6-9-2.4
		c-1.4-1.9-1.3-4.9-0.6-9.8c0.8-5.2,1.7-7.7,3.7-9.7c2.1-2,4.8-2.5,9.8-2.5C214.7,105.5,217.1,105.8,219.5,106.4z"/>
</g>
<g class="st1">
	<path class="st0" d="M177,6.7c0-2.1,0.9-3,3-3c2,0,3,0.9,3,3c0,2.1-0.9,3-3,3C177.9,9.7,177,8.7,177,6.7z M182.7,6.7
		c0-1.9-0.8-2.7-2.7-2.7c-1.8,0-2.7,0.8-2.7,2.7c0,1.9,0.8,2.7,2.7,2.7C181.8,9.4,182.7,8.5,182.7,6.7z M180.9,5.4
		c0.2,0.1,0.2,0.4,0.2,0.8c0,0.6-0.2,0.8-0.7,0.9l0.7,1.1c0,0,0,0.1,0,0.1h-0.3c0,0-0.1,0-0.1-0.1L180,7.1h-0.6v1.1c0,0,0,0,0,0
		h-0.3c0,0,0,0,0,0V5.2c0,0,0,0,0,0c0.3,0,0.6,0,0.9,0C180.4,5.2,180.7,5.2,180.9,5.4z M179.4,5.5v1.2h0.5c0.3,0,0.6,0,0.7-0.1
		c0.1-0.1,0.2-0.2,0.2-0.5c0-0.3-0.1-0.4-0.2-0.5c-0.1-0.1-0.3-0.1-0.6-0.1H179.4z"/>
</g>
</svg>
