<?xml version="1.0" encoding="utf-8"?>
<!-- Generator: Adobe Illustrator 24.1.1, SVG Export Plug-In . SVG Version: 6.00 Build 0)  -->
<svg version="1.1" id="Capa_1" xmlns="http://www.w3.org/2000/svg" xmlns:xlink="http://www.w3.org/1999/xlink" x="0px" y="0px"
	 viewBox="0 0 425.5 424.9" style="enable-background:new 0 0 425.5 424.9;" xml:space="preserve">
<style type="text/css">
	.st0{fill:#FFFFFF;}
</style>
<g>
	<path class="st0" d="M197.5,395.1C88.6,395.1,0,306.5,0,197.5C0,88.6,88.6,0,197.5,0s197.5,88.6,197.5,197.5
		C395.1,306.5,306.5,395.1,197.5,395.1z M197.5,70C127.2,70,70,127.2,70,197.5s57.2,127.5,127.5,127.5s127.5-57.2,127.5-127.5
		S267.9,70,197.5,70z"/>
</g>
<g>
	<path class="st0" d="M390.5,424.9c-9.2,0-18.3-3.6-25.2-10.7l-75.3-78.1c-13.4-13.9-13-36.1,0.9-49.5c13.9-13.4,36.1-13,49.5,0.9
		l75.3,78.1c13.4,13.9,13,36.1-0.9,49.5C408,421.6,399.2,424.9,390.5,424.9z"/>
</g>
</svg>
