<svg width="245" height="67" viewBox="0 0 245 67" fill="none" xmlns="http://www.w3.org/2000/svg">
<path d="M93.6957 25.8641C94.3566 25.8601 95.0113 25.9937 95.6185 26.2566C96.8096 26.767 97.7569 27.7239 98.26 28.9249C98.7797 30.1684 98.7797 31.5703 98.26 32.8139C97.7569 34.0148 96.8096 34.9717 95.6185 35.4821C95.0113 35.7451 94.3566 35.8787 93.6957 35.8746H88.7251V25.8656L93.6957 25.8641ZM88.7251 40.8621H93.6957C95.0202 40.8698 96.3322 40.6027 97.5497 40.0775C99.9338 39.0607 101.832 37.1501 102.842 34.7498C103.707 32.6823 103.856 30.3818 103.266 28.2185C102.566 25.7028 100.928 23.5569 98.6929 22.2295C97.9522 21.7903 97.1578 21.4502 96.3298 21.2177C95.4726 20.9776 94.5866 20.8574 93.6968 20.8602H83.7555V45.8685H88.7261V40.864L88.7251 40.8621ZM123.991 27.2236H122.848L121.012 29.4387C120.568 29.0168 120.096 28.6264 119.599 28.2704C119.099 27.9113 118.568 27.5962 118.014 27.3286C117.465 27.0627 116.89 26.852 116.3 26.6996C115.716 26.5494 115.117 26.4732 114.515 26.4729C113.253 26.4646 112.001 26.7108 110.835 27.1968C109.705 27.6655 108.68 28.3561 107.82 29.2284C106.942 30.1262 106.251 31.1901 105.784 32.3588C105.277 33.6306 105.024 34.9908 105.039 36.3613C105.015 37.7863 105.268 39.2022 105.784 40.5293C106.242 41.6919 106.935 42.7461 107.82 43.6247C108.682 44.4693 109.708 45.1254 110.835 45.5518C112.011 45.9984 113.258 46.2231 114.515 46.2144C115.114 46.2147 115.711 46.1383 116.291 45.9877C116.877 45.8354 117.449 45.6281 117.997 45.3686C118.551 45.1074 119.081 44.7982 119.582 44.4442C120.08 44.0927 120.558 43.7113 121.011 43.302L122.847 45.8657H123.99V27.2236H123.991ZM118.855 38.2551C118.615 38.8518 118.272 39.4008 117.841 39.8768C117.417 40.3457 116.909 40.7302 116.343 41.0103C115.776 41.2945 115.15 41.4409 114.516 41.4377C113.892 41.4418 113.272 41.3294 112.688 41.1063C112.128 40.8927 111.62 40.5596 111.199 40.1297C110.76 39.6731 110.421 39.1297 110.203 38.534C109.718 37.1277 109.718 35.5979 110.203 34.1916C110.421 33.596 110.761 33.0526 111.199 32.5959C111.62 32.1662 112.128 31.8331 112.688 31.6193C113.272 31.3963 113.892 31.284 114.516 31.2878C115.15 31.2849 115.776 31.4313 116.343 31.7153C116.909 31.9956 117.417 32.3801 117.841 32.8489C118.272 33.3248 118.615 33.8739 118.855 34.4705C119.351 35.6825 119.351 37.0431 118.855 38.2551ZM134.487 53.0175C135.75 53.0261 137 52.7708 138.159 52.2677C139.279 51.7832 140.299 51.091 141.165 50.227C142.028 49.3615 142.719 48.3374 143.2 47.2101C143.7 46.0424 143.959 44.7846 143.962 43.5131V27.1897H139.199V37.5137C139.199 38.0124 139.105 38.5066 138.922 38.9699C138.742 39.4325 138.484 39.8603 138.16 40.2345C137.841 40.603 137.456 40.9077 137.025 41.1325C136.601 41.3571 136.128 41.4738 135.648 41.4725C135.173 41.4762 134.7 41.3936 134.254 41.2285C133.826 41.069 133.438 40.8158 133.119 40.4871C132.781 40.132 132.518 39.7106 132.348 39.2491C132.147 38.6934 132.051 38.105 132.063 37.5137V27.1897H127.351V37.5137C127.333 38.751 127.554 39.98 128.001 41.1325C128.792 43.1793 130.396 44.8007 132.426 45.6057C133.451 46.0164 134.545 46.2237 135.648 46.2161C136.204 46.2133 136.755 46.1007 137.268 45.8846C137.805 45.6638 138.333 45.443 138.853 45.222C138.681 45.6488 138.454 46.0506 138.177 46.4165C137.904 46.7786 137.58 47.0988 137.216 47.3671C136.853 47.6342 136.453 47.8461 136.029 47.9961C135.601 48.1473 135.15 48.224 134.695 48.2228L132.063 48.1878V52.9836L134.488 53.0186L134.487 53.0175ZM171.156 34.0084C171.162 33.0503 170.973 32.1011 170.602 31.219C169.888 29.5042 168.536 28.1394 166.834 27.4178C165.961 27.0431 165.021 26.8531 164.072 26.8595C163.636 26.8604 163.201 26.8984 162.772 26.9731C162.335 27.0482 161.908 27.174 161.499 27.348C161.083 27.5258 160.691 27.7543 160.33 28.0281C159.953 28.3147 159.62 28.6556 159.343 29.04C158.784 28.288 158.033 27.7032 157.17 27.3483C156.362 27.0262 155.501 26.8605 154.632 26.8599C153.788 26.858 152.951 27.0147 152.164 27.322C151.373 27.6306 150.638 28.0697 149.991 28.6213L148.709 27.1913H147.565V45.8693H152.294V34.0084C152.292 33.6912 152.354 33.377 152.476 33.0843C152.593 32.7989 152.764 32.5385 152.978 32.317C153.412 31.8667 154.009 31.6146 154.632 31.6193C155.262 31.6167 155.867 31.8676 156.313 32.3162C156.759 32.7648 157.008 33.374 157.005 34.0084V45.8674H161.734V34.0084C161.732 33.6912 161.794 33.377 161.916 33.0843C162.034 32.7989 162.204 32.5385 162.418 32.317C162.852 31.8667 163.449 31.6146 164.072 31.6193C164.702 31.6167 165.308 31.8676 165.753 32.3162C166.199 32.7648 166.448 33.374 166.445 34.0084V45.8674H171.157V34.0084H171.156ZM190.85 30.538C190.412 29.9113 189.901 29.3403 189.326 28.8376C188.188 27.835 186.828 27.1206 185.36 26.7538C184.618 26.5674 183.856 26.4736 183.091 26.4746C181.83 26.4662 180.579 26.7092 179.411 27.1897C177.1 28.129 175.275 29.9829 174.362 32.317C173.852 33.6039 173.599 34.9791 173.617 36.3643C173.601 37.7234 173.854 39.072 174.362 40.3315C174.831 41.4936 175.522 42.5513 176.397 43.4447C178.169 45.2351 180.581 46.2341 183.091 46.2174C183.853 46.2188 184.612 46.1281 185.352 45.9472C186.08 45.7691 186.784 45.5028 187.448 45.1542C188.113 44.8045 188.735 44.3773 189.301 43.8812C189.873 43.3813 190.382 42.8133 190.817 42.1895L187.352 38.6842C187.17 39.0987 186.928 39.4836 186.634 39.8264C186.343 40.1658 186.005 40.4597 185.629 40.6985C185.254 40.9363 184.849 41.1211 184.425 41.2477C183.992 41.3764 183.542 41.4409 183.091 41.4391C182.906 41.4391 182.721 41.43 182.537 41.4117C182.348 41.3937 182.163 41.3558 181.982 41.2985L190.851 30.5383L190.85 30.538ZM178.899 38.8392C178.801 38.6634 178.726 38.4759 178.674 38.2811C178.616 38.0718 178.567 37.8538 178.527 37.6272C178.487 37.405 178.458 37.1809 178.44 36.9558C178.423 36.7351 178.413 36.5371 178.413 36.3629C178.402 35.6456 178.526 34.9327 178.777 34.2613C179.001 33.6686 179.34 33.1263 179.773 32.6656C180.193 32.2247 180.701 31.8772 181.262 31.6453C181.842 31.4056 182.463 31.2842 183.09 31.2879C183.313 31.2875 183.535 31.2992 183.757 31.3229C183.979 31.3483 184.197 31.401 184.406 31.4799L178.898 38.8392H178.899ZM197.953 35.1944C197.95 34.7181 198.045 34.2463 198.23 33.8079C198.793 32.4731 200.098 31.6101 201.538 31.6202C202.008 31.6173 202.474 31.7123 202.906 31.8991C203.758 32.2651 204.435 32.9498 204.794 33.8087C204.98 34.2471 205.074 34.7189 205.072 35.1952V45.8682H209.801V35.1952C209.807 34.0778 209.586 32.9709 209.151 31.9429C208.733 30.948 208.13 30.0425 207.375 29.2746C206.621 28.5105 205.727 27.9005 204.743 27.4782C203.73 27.0407 202.639 26.8181 201.538 26.8242C199.462 26.8205 197.461 27.598 195.926 29.0042L194.367 27.1905H193.224V45.8685H197.953V35.1955L197.953 35.1944ZM226.048 45.8674V41.1238H222.462C221.98 41.1267 221.502 41.0287 221.059 40.8361C220.633 40.6527 220.245 40.3893 219.916 40.06C219.591 39.7322 219.332 39.3444 219.154 38.9177C218.968 38.4736 218.873 37.9958 218.877 37.5137V31.968H226.048V27.2236H218.877V19.7606H214.166V27.2236H211.862V31.9669H214.166V37.5126C214.159 38.6274 214.38 39.7317 214.816 40.7565C215.664 42.7615 217.25 44.3583 219.241 45.2121C220.259 45.651 221.356 45.8737 222.463 45.8663L226.048 45.8674ZM241.169 45.4052C241.87 45.1079 242.505 44.6753 243.04 44.1319C243.574 43.5881 244.002 42.9496 244.305 42.2486C244.619 41.5198 244.779 40.7327 244.772 39.938C244.78 39.1628 244.621 38.3951 244.305 37.6882C244.006 37.0209 243.576 36.4216 243.04 35.9268C242.494 35.4297 241.859 35.0421 241.169 34.7845C240.439 34.5086 239.664 34.3696 238.883 34.3743H233.964C233.649 34.378 233.347 34.2482 233.132 34.0166C232.905 33.7882 232.78 33.4767 232.786 33.1535C232.789 32.4997 233.315 31.9705 233.964 31.9675H243.543V27.2234H233.964C233.173 27.2178 232.389 27.375 231.66 27.6855C230.249 28.2819 229.126 29.4123 228.535 30.8334C227.922 32.3183 227.922 33.9874 228.535 35.4723C229.129 36.8983 230.25 38.0363 231.661 38.6461C232.388 38.9625 233.173 39.1229 233.965 39.1171H238.883C239.168 39.1097 239.452 39.1632 239.715 39.274C239.958 39.3992 240.096 39.6645 240.061 39.9369C240.058 40.5907 239.533 41.1201 238.883 41.1227H228.074V45.8664H238.883C239.669 45.8709 240.447 45.7137 241.169 45.4041V45.4052Z" fill="#ECEFF1"/>
<path d="M66.2739 10.359V20.7509C66.2755 18.0034 65.1924 15.368 63.2631 13.425C61.3338 11.4821 58.7165 10.3909 55.9877 10.3918H10.3204V10.359C10.3204 4.63795 14.927 0 20.6093 0H55.9877C61.6691 0.00135909 66.2739 4.6389 66.2739 10.359Z" fill="url(#paint0_linear)"/>
<path d="M66.2738 20.7509V56.3702C66.2738 62.0899 61.6686 66.7265 55.9876 66.7265H45.6661C48.3943 66.7265 51.0107 65.6357 52.9398 63.6935C54.8689 61.7513 55.9526 59.117 55.9523 56.3702V10.3918H55.9876C58.7165 10.3909 61.3338 11.4821 63.2631 13.4251C65.1924 15.368 66.2755 18.0034 66.2738 20.7509Z" fill="url(#paint1_linear)"/>
<path d="M55.9524 56.3347V56.3703C55.9524 59.117 54.8689 61.7513 52.9398 63.6935C51.0108 65.6358 48.3943 66.7268 45.6662 66.7266H10.2889C7.56042 66.7272 4.94347 65.6363 3.01388 63.6941C1.08428 61.7519 0 59.1174 0 56.3703V45.8743C0 48.6217 1.08391 51.2566 3.01347 53.1993C4.94303 55.142 7.5601 56.2334 10.2889 56.2333H10.3215V56.3345L55.9524 56.3347Z" fill="url(#paint2_linear)"/>
<path d="M20.6104 0C14.9281 0 10.3217 4.63795 10.3215 10.359V56.2335H10.2889C7.5601 56.2335 4.94303 55.1422 3.01347 53.1995C1.08391 51.2568 0 48.6219 0 45.8745V10.359C0 4.63795 4.60657 0 10.2889 0H20.6104Z" fill="url(#paint3_linear)"/>
<path d="M39.8524 41.7607C39.3877 42.1854 38.8974 42.581 38.3843 42.9451C37.8679 43.313 37.321 43.6357 36.7497 43.9096C36.1844 44.1807 35.5953 44.3983 34.9899 44.5596C34.3886 44.7199 33.7691 44.8008 33.147 44.8006C31.8209 44.8097 30.5056 44.5605 29.2734 44.0668C26.8329 43.099 24.9044 41.1497 23.9527 38.6888C23.415 37.3032 23.1498 35.8256 23.1718 34.3382V21.9257H28.8361V34.3382C28.8249 35.0283 28.9414 35.7146 29.1797 36.3618C29.3857 36.9191 29.7008 37.4289 30.1065 37.861C30.4904 38.2632 30.9555 38.5778 31.4706 38.7834C32.0041 38.9956 32.5733 39.1024 33.147 39.0979C33.7237 39.0995 34.292 38.9591 34.8025 38.6891C35.3205 38.4186 35.7832 38.0523 36.1666 37.6094C36.5566 37.1595 36.8665 36.6452 37.0827 36.0892C37.3032 35.5324 37.4163 34.9384 37.416 34.339V21.9265H43.1005V44.3821H41.7261L39.8524 41.7607Z" fill="#ECEFF1"/>
<path d="M149.713 64.392H148.143V56.8241H149.713V64.392Z" fill="#90A4AE"/>
<path d="M152.504 64.392H151.01V58.7398H151.371L151.864 59.2887C152.349 58.8634 152.981 58.6282 153.637 58.6291C153.985 58.6273 154.33 58.6946 154.65 58.8269C154.961 58.9549 155.243 59.1394 155.481 59.3706C155.72 59.6029 155.91 59.877 156.043 60.178C156.18 60.4892 156.25 60.8242 156.248 61.1623V64.392H154.754V61.1623C154.754 61.0182 154.725 60.8754 154.666 60.7427C154.61 60.6136 154.528 60.4962 154.425 60.3969C154.323 60.2986 154.202 60.2198 154.07 60.1648C153.933 60.1084 153.786 60.0796 153.638 60.0803C153.182 60.0757 152.769 60.3375 152.593 60.7427C152.534 60.8753 152.504 61.0182 152.505 61.1623L152.504 64.392Z" fill="#90A4AE"/>
<path d="M162.432 59.8641L161.338 60.9248C161.285 60.7814 161.21 60.647 161.113 60.5265C161.022 60.4125 160.914 60.312 160.793 60.2283C160.675 60.1478 160.545 60.0854 160.407 60.0435C160.269 60.0014 160.125 59.9801 159.98 59.9803C159.781 59.9793 159.584 60.0208 159.403 60.1017C159.223 60.182 159.063 60.298 158.932 60.442C158.795 60.595 158.688 60.7713 158.618 60.962C158.539 61.1753 158.5 61.4005 158.503 61.627C158.501 61.8174 158.54 62.0061 158.618 62.1813C158.692 62.3503 158.799 62.5042 158.932 62.6349C159.21 62.9035 159.587 63.0533 159.98 63.0509C160.123 63.0514 160.265 63.0319 160.402 62.9929C160.536 62.9546 160.664 62.8986 160.782 62.8265C160.901 62.7543 161.008 62.6653 161.1 62.5627C161.193 62.459 161.269 62.3425 161.327 62.2171L162.421 63.2779C162.284 63.4666 162.123 63.6385 161.942 63.7897C161.764 63.9399 161.567 64.0692 161.357 64.175C161.147 64.2806 160.925 64.3612 160.695 64.415C160.461 64.4698 160.221 64.4973 159.98 64.4969C159.581 64.4995 159.185 64.4231 158.817 64.2725C158.1 63.9819 157.528 63.4342 157.222 62.7449C157.064 62.392 156.984 62.0113 156.986 61.627C156.983 61.2115 157.063 60.7994 157.222 60.4132C157.371 60.0492 157.589 59.7155 157.865 59.4291C158.135 59.1507 158.458 58.9257 158.817 58.7667C159.182 58.6045 159.579 58.5216 159.98 58.5238C160.223 58.5237 160.465 58.5538 160.7 58.6136C161.174 58.734 161.609 58.9682 161.964 59.2945C162.147 59.4624 162.304 59.6541 162.432 59.8641Z" fill="#90A4AE"/>
<path d="M164.665 64.3922H163.16V56.4919H164.665V64.3922Z" fill="#90A4AE"/>
<path d="M170.111 63.7325C169.989 63.8393 169.86 63.9389 169.725 64.0307C169.589 64.1234 169.445 64.2045 169.295 64.2733C169.147 64.3416 168.992 64.3964 168.833 64.437C168.674 64.4774 168.511 64.4977 168.348 64.4977C167.999 64.4998 167.653 64.4372 167.329 64.313C166.688 64.0693 166.181 63.5786 165.931 62.9593C165.79 62.6106 165.72 62.2387 165.726 61.8643V58.7399H167.215V61.8643C167.212 62.0379 167.242 62.2105 167.305 62.3733C167.359 62.5136 167.441 62.6419 167.548 62.7508C167.648 62.8521 167.771 62.9313 167.906 62.983C168.046 63.0364 168.196 63.0633 168.346 63.0623C168.498 63.0624 168.648 63.0267 168.782 62.9583C168.918 62.8902 169.04 62.798 169.14 62.6864C169.243 62.5732 169.324 62.4438 169.381 62.3039C169.439 62.1633 169.469 62.0133 169.469 61.862V58.7375H170.963V64.3897H170.601L170.111 63.7325Z" fill="#90A4AE"/>
<path d="M177.768 64.392H177.406L176.826 63.6163C176.683 63.7401 176.532 63.8555 176.375 63.962C176.216 64.0691 176.049 64.1627 175.874 64.2418C175.701 64.3203 175.52 64.383 175.335 64.429C175.151 64.4746 174.963 64.4976 174.773 64.4976C173.979 64.5013 173.216 64.1959 172.658 63.6506C172.382 63.3789 172.164 63.058 172.015 62.7058C171.701 61.9423 171.701 61.0921 172.015 60.3286C172.164 59.9748 172.382 59.6521 172.658 59.3784C172.93 59.1111 173.253 58.8978 173.61 58.7505C173.978 58.5984 174.374 58.5211 174.773 58.5236C174.91 58.524 175.046 58.5346 175.181 58.5553C175.321 58.5766 175.459 58.6114 175.592 58.6593C175.724 58.7064 175.85 58.7693 175.967 58.8464C176.083 58.9233 176.184 59.0203 176.263 59.1324V56.4937H177.768L177.768 64.392ZM176.263 61.5159C176.263 61.3196 176.222 61.1253 176.145 60.9439C176.069 60.7635 175.961 60.5974 175.825 60.4534C175.69 60.3115 175.53 60.1952 175.351 60.1102C175.172 60.0241 174.974 59.9796 174.774 59.9802C174.576 59.9789 174.38 60.0148 174.197 60.0858C174.019 60.154 173.859 60.2574 173.726 60.3892C173.588 60.5277 173.481 60.692 173.411 60.8719C173.331 61.0778 173.292 61.2962 173.296 61.5159C173.295 61.9154 173.448 62.301 173.726 62.5977C173.858 62.7378 174.018 62.8509 174.197 62.9302C174.377 63.0112 174.574 63.0526 174.774 63.0516C174.974 63.0523 175.172 63.0078 175.351 62.9216C175.53 62.8367 175.691 62.7203 175.825 62.5784C175.961 62.4343 176.069 62.2682 176.145 62.0876C176.222 61.9063 176.263 61.7121 176.263 61.5159Z" fill="#90A4AE"/>
<path d="M180.668 57.2042C180.669 57.3332 180.641 57.4609 180.587 57.5789C180.536 57.6925 180.463 57.7956 180.372 57.8825C180.279 57.9695 180.17 58.0392 180.051 58.0882C179.801 58.1902 179.519 58.1902 179.269 58.0882C179.031 57.991 178.841 57.8085 178.739 57.5789C178.633 57.3404 178.633 57.0707 178.739 56.8322C178.839 56.6012 179.03 56.4175 179.269 56.3203C179.519 56.2186 179.801 56.2186 180.051 56.3203C180.17 56.3693 180.279 56.439 180.372 56.526C180.463 56.6136 180.537 56.7176 180.587 56.8322C180.641 56.9495 180.668 57.0762 180.668 57.2042ZM180.411 64.3921H178.906V58.7399H180.411V64.3921Z" fill="#90A4AE"/>
<path d="M183.043 64.392H181.549V58.7399H181.911L182.403 59.2887C182.888 58.8634 183.521 58.6282 184.176 58.6291C184.524 58.6273 184.869 58.6946 185.189 58.8269C185.5 58.9548 185.782 59.1394 186.021 59.3706C186.259 59.6029 186.45 59.877 186.582 60.178C186.719 60.4892 186.789 60.8242 186.787 61.1623V64.392H185.293V61.1623C185.293 61.0182 185.264 60.8754 185.206 60.7427C185.149 60.6136 185.067 60.4962 184.964 60.3969C184.862 60.2986 184.742 60.2198 184.609 60.1648C184.473 60.1084 184.326 60.0796 184.177 60.0803C183.722 60.0757 183.309 60.3375 183.132 60.7427C183.074 60.8753 183.044 61.0182 183.045 61.1623L183.043 64.392Z" fill="#90A4AE"/>
<path d="M193.525 63.6797C193.528 64.064 193.447 64.4447 193.29 64.7976C193.138 65.1388 192.92 65.4487 192.647 65.7107C192.372 65.9725 192.049 66.182 191.694 66.3281C191.327 66.4803 190.931 66.5576 190.531 66.5551L189.782 66.5447V65.1039L190.52 65.1143C190.723 65.1191 190.925 65.0896 191.117 65.0272C191.416 64.9274 191.663 64.7179 191.804 64.4441C191.872 64.3125 191.926 64.1746 191.965 64.0325C191.903 64.1273 191.817 64.2046 191.714 64.2569C191.598 64.3172 191.476 64.3649 191.35 64.3994C191.214 64.4368 191.075 64.4623 190.934 64.4758C190.8 64.4893 190.666 64.4963 190.532 64.4968C190.134 64.4994 189.739 64.4296 189.369 64.2909C188.638 64.0219 188.059 63.4682 187.773 62.7659C187.611 62.3678 187.531 61.9429 187.538 61.5152C187.534 61.1083 187.614 60.7047 187.773 60.3278C187.922 59.974 188.14 59.6513 188.416 59.3776C188.688 59.1103 189.012 58.897 189.369 58.7498C189.736 58.5976 190.132 58.5204 190.532 58.5228C190.722 58.5229 190.911 58.5459 191.095 58.5915C191.282 58.6373 191.463 58.701 191.637 58.7815C191.812 58.8627 191.98 58.9584 192.138 59.0675C192.295 59.1752 192.444 59.2933 192.584 59.421L193.164 58.7508H193.525L193.525 63.6797ZM192.02 61.5159C192.02 61.3197 191.98 61.1254 191.902 60.944C191.827 60.7635 191.718 60.5974 191.582 60.4534C191.448 60.3115 191.287 60.1951 191.109 60.1102C190.929 60.0242 190.732 59.9797 190.531 59.9802C190.334 59.9791 190.138 60.013 189.954 60.0803C189.777 60.1452 189.616 60.246 189.483 60.3759C189.345 60.5142 189.238 60.6787 189.168 60.859C189.089 61.0693 189.05 61.292 189.054 61.5159C189.05 61.733 189.089 61.9487 189.168 62.1518C189.239 62.3312 189.346 62.4952 189.483 62.6346C189.616 62.7682 189.776 62.8734 189.954 62.9435C190.137 63.0161 190.333 63.0529 190.531 63.0516C190.732 63.0523 190.93 63.0078 191.109 62.9216C191.288 62.8369 191.448 62.7205 191.582 62.5785C191.718 62.4345 191.827 62.2683 191.902 62.0876C191.98 61.9063 192.019 61.712 192.019 61.5159H192.02Z" fill="#90A4AE"/>
<path d="M203.337 64.392H197.958V56.8241H203.337V58.339H199.528V59.8534H202.106V61.368H199.528V62.8774H203.337V64.392Z" fill="#90A4AE"/>
<path d="M205.784 64.3922L203.551 58.74H205.253L206.534 62.2653L207.809 58.74H209.517L207.284 64.3922H205.784Z" fill="#90A4AE"/>
<path d="M212.247 63.0095C212.304 63.0268 212.363 63.0383 212.422 63.0439C212.481 63.0491 212.539 63.0517 212.598 63.0517C212.74 63.0522 212.882 63.0326 213.019 62.9937C213.153 62.9554 213.281 62.8994 213.399 62.8273C213.518 62.7551 213.625 62.6662 213.717 62.5634C213.81 62.4598 213.887 62.3433 213.944 62.2179L215.039 63.2786C214.901 63.4674 214.741 63.6393 214.56 63.7905C214.381 63.9406 214.184 64.07 213.974 64.1758C213.764 64.2814 213.542 64.362 213.312 64.4158C213.078 64.4706 212.838 64.4981 212.598 64.4977C211.804 64.5029 211.042 64.2005 210.482 63.6584C210.206 63.3882 209.987 63.0681 209.839 62.7165C209.679 62.3354 209.599 61.9273 209.604 61.516C209.598 61.097 209.678 60.681 209.839 60.2917C210.128 59.5853 210.705 59.0243 211.435 58.7399C211.804 58.5946 212.199 58.521 212.598 58.5236C212.839 58.5233 213.08 58.5517 213.315 58.6081C213.779 58.7192 214.208 58.9354 214.568 59.2388C214.75 59.3909 214.911 59.5636 215.05 59.7533L212.247 63.0095ZM213.014 60.0383C212.948 60.0144 212.879 59.9985 212.808 59.9907C212.738 59.9836 212.668 59.9801 212.598 59.9803C212.4 59.979 212.203 60.0158 212.02 60.0884C211.843 60.1585 211.682 60.2637 211.55 60.397C211.413 60.5365 211.306 60.7006 211.235 60.8801C211.156 61.0832 211.117 61.2989 211.12 61.516C211.12 61.568 211.123 61.6285 211.128 61.6954C211.134 61.7622 211.143 61.83 211.155 61.8987C211.168 61.9673 211.182 62.0331 211.202 62.0965C211.218 62.1554 211.242 62.2121 211.273 62.2652L213.014 60.0383Z" fill="#90A4AE"/>
<path d="M217.293 64.3922H215.799V58.74H216.161L216.653 59.4102C217.139 58.986 217.771 58.7509 218.426 58.7506H219.745V60.186H218.426C218.125 60.1845 217.836 60.2984 217.622 60.5026C217.519 60.6025 217.437 60.7208 217.381 60.851C217.322 60.9863 217.293 61.1317 217.293 61.2784V64.3922Z" fill="#90A4AE"/>
<path d="M221.809 66.5455V65.094L222.641 65.1047C222.784 65.1049 222.927 65.0817 223.062 65.036C223.196 64.9907 223.322 64.9267 223.437 64.846C223.552 64.7648 223.654 64.6678 223.741 64.5582C223.828 64.4475 223.9 64.3259 223.954 64.1968C223.79 64.2635 223.623 64.3304 223.453 64.3973C223.291 64.4627 223.117 64.4968 222.941 64.4976C222.593 64.4999 222.247 64.4372 221.923 64.313C221.282 64.0694 220.775 63.5787 220.525 62.9593C220.384 62.6106 220.314 62.2387 220.32 61.8643V58.7399H221.808V61.8643C221.804 62.0433 221.835 62.2213 221.899 62.3895C221.952 62.529 222.035 62.6565 222.141 62.7641C222.242 62.8635 222.364 62.9401 222.5 62.9884C222.641 63.0383 222.79 63.0634 222.94 63.0623C223.092 63.0624 223.241 63.0267 223.375 62.9583C223.512 62.8902 223.633 62.798 223.734 62.6863C223.836 62.5732 223.918 62.4439 223.975 62.3039C224.033 62.1633 224.063 62.0133 224.062 61.862V58.7375H225.567V63.6771C225.566 64.0616 225.484 64.442 225.326 64.795C225.175 65.1362 224.956 65.4461 224.683 65.7081C224.41 65.9695 224.088 66.179 223.734 66.3255C223.368 66.4777 222.973 66.555 222.575 66.5525L221.809 66.5455Z" fill="#90A4AE"/>
<path d="M232.372 61.516C232.375 61.9203 232.295 62.3213 232.136 62.6955C231.988 63.0472 231.77 63.368 231.496 63.6403C231.225 63.9067 230.902 64.1199 230.546 64.2681C229.802 64.5742 228.96 64.5742 228.215 64.2681C227.489 63.9671 226.916 63.4019 226.62 62.6955C226.461 62.3213 226.381 61.9203 226.384 61.516C226.38 61.1073 226.46 60.7019 226.62 60.3232C226.768 59.9701 226.986 59.6483 227.263 59.3761C227.535 59.11 227.858 58.8976 228.215 58.7506C228.582 58.5984 228.978 58.5212 229.378 58.5236C229.778 58.5208 230.175 58.5934 230.546 58.7373C230.902 58.8755 231.225 59.082 231.496 59.3444C231.772 59.6154 231.99 59.9364 232.136 60.2889C232.298 60.679 232.378 61.096 232.372 61.516ZM230.867 61.516C230.87 61.3004 230.83 61.0863 230.749 60.8853C230.676 60.705 230.567 60.5402 230.429 60.3999C230.295 60.2651 230.134 60.1588 229.955 60.0879C229.585 59.9437 229.171 59.9437 228.8 60.0879C228.622 60.1585 228.462 60.2648 228.33 60.3999C228.193 60.5405 228.086 60.7053 228.015 60.8853C227.936 61.0867 227.897 61.3007 227.9 61.516C227.898 61.7234 227.937 61.9294 228.015 62.1228C228.087 62.3024 228.194 62.4672 228.33 62.6084C228.463 62.7456 228.623 62.8559 228.8 62.9329C228.982 63.0123 229.179 63.0528 229.378 63.0517C229.576 63.0529 229.773 63.0152 229.955 62.9409C230.133 62.8687 230.294 62.7626 230.429 62.6289C230.568 62.4892 230.677 62.3242 230.749 62.1436C230.829 61.9435 230.869 61.7305 230.866 61.516H230.867Z" fill="#90A4AE"/>
<path d="M234.692 64.392H233.198V58.7399H233.559L234.052 59.2887C234.537 58.8633 235.169 58.6281 235.825 58.6291C236.173 58.6273 236.518 58.6946 236.838 58.8269C237.149 58.9547 237.431 59.1393 237.669 59.3706C237.908 59.6028 238.098 59.8769 238.23 60.178C238.368 60.4891 238.438 60.8241 238.436 61.1623V64.392H236.941V61.1623C236.942 61.0182 236.912 60.8754 236.854 60.7427C236.798 60.6136 236.716 60.4962 236.613 60.3969C236.511 60.2985 236.39 60.2198 236.257 60.1648C236.121 60.1084 235.974 60.0796 235.826 60.0803C235.37 60.0755 234.957 60.3374 234.78 60.7427C234.722 60.8754 234.692 61.0182 234.693 61.1623L234.692 64.392Z" fill="#90A4AE"/>
<path d="M241.829 63.0095C241.886 63.0269 241.945 63.0384 242.004 63.0439C242.062 63.0491 242.121 63.0517 242.179 63.0517C242.322 63.0521 242.464 63.0326 242.601 62.9937C242.735 62.9554 242.863 62.8994 242.981 62.8273C243.1 62.7551 243.207 62.6662 243.298 62.5634C243.392 62.4598 243.468 62.3433 243.525 62.2179L244.62 63.2786C244.483 63.4674 244.322 63.6393 244.141 63.7905C243.962 63.9406 243.766 64.07 243.556 64.1758C243.346 64.2814 243.123 64.362 242.893 64.4158C242.659 64.4706 242.42 64.4981 242.179 64.4977C241.386 64.5028 240.624 64.2004 240.064 63.6584C239.787 63.3883 239.569 63.0682 239.421 62.7165C239.26 62.3354 239.18 61.9273 239.186 61.516C239.18 61.097 239.26 60.681 239.421 60.2917C239.709 59.5854 240.286 59.0243 241.016 58.7399C241.385 58.5945 241.78 58.521 242.179 58.5236C242.421 58.5233 242.662 58.5517 242.896 58.6081C243.36 58.7192 243.79 58.9354 244.149 59.2388C244.331 59.3909 244.493 59.5636 244.631 59.7533L241.829 63.0095ZM242.595 60.0383C242.529 60.0144 242.46 59.9985 242.39 59.9907C242.32 59.9836 242.249 59.9801 242.179 59.9803C241.981 59.979 241.785 60.0158 241.602 60.0884C241.424 60.1585 241.264 60.2636 241.131 60.397C240.994 60.5365 240.887 60.7006 240.816 60.8801C240.737 61.0832 240.698 61.2989 240.701 61.516C240.701 61.568 240.704 61.6285 240.71 61.6954C240.715 61.7635 240.724 61.8314 240.737 61.8987C240.749 61.9669 240.765 62.0329 240.783 62.0965C240.799 62.1554 240.823 62.2121 240.854 62.2652L242.595 60.0383Z" fill="#90A4AE"/>
<defs>
<linearGradient id="paint0_linear" x1="10.3204" y1="10.3754" x2="66.2739" y2="10.3754" gradientUnits="userSpaceOnUse">
<stop stop-color="#AF4700"/>
<stop offset="0.083" stop-color="#D06301"/>
<stop offset="0.166" stop-color="#EA7902"/>
<stop offset="0.24" stop-color="#F98603"/>
<stop offset="0.299" stop-color="#FF8B04"/>
<stop offset="0.411" stop-color="#FF8506"/>
<stop offset="0.549" stop-color="#FF760F"/>
<stop offset="0.702" stop-color="#FF5D1D"/>
<stop offset="0.863" stop-color="#FF3A30"/>
<stop offset="0.999" stop-color="#FF1744"/>
</linearGradient>
<linearGradient id="paint1_linear" x1="55.97" y1="66.7265" x2="55.97" y2="10.3918" gradientUnits="userSpaceOnUse">
<stop offset="0.004" stop-color="#00BFA5"/>
<stop offset="0.005" stop-color="#00BEA5"/>
<stop offset="0.205" stop-color="#11BBC8"/>
<stop offset="0.393" stop-color="#1EB8E1"/>
<stop offset="0.563" stop-color="#26B6F0"/>
<stop offset="0.701" stop-color="#29B6F6"/>
<stop offset="0.772" stop-color="#25B0F3"/>
<stop offset="0.861" stop-color="#1AA1EA"/>
<stop offset="0.96" stop-color="#0887DD"/>
<stop offset="1" stop-color="#007BD7"/>
</linearGradient>
<linearGradient id="paint2_linear" x1="0" y1="56.3004" x2="55.9524" y2="56.3004" gradientUnits="userSpaceOnUse">
<stop offset="0.002" stop-color="#8BC34A"/>
<stop offset="0.042" stop-color="#7DC252"/>
<stop offset="0.194" stop-color="#51C16F"/>
<stop offset="0.34" stop-color="#2DC087"/>
<stop offset="0.477" stop-color="#14BF97"/>
<stop offset="0.601" stop-color="#05BFA1"/>
<stop offset="0.701" stop-color="#00BFA5"/>
<stop offset="0.786" stop-color="#00B99F"/>
<stop offset="0.892" stop-color="#00AA90"/>
<stop offset="1" stop-color="#02937B"/>
</linearGradient>
<linearGradient id="paint3_linear" x1="10.3052" y1="56.2335" x2="10.3052" y2="0" gradientUnits="userSpaceOnUse">
<stop stop-color="#5F9618"/>
<stop offset="0.078" stop-color="#639A1D"/>
<stop offset="0.176" stop-color="#71A82C"/>
<stop offset="0.282" stop-color="#87BF45"/>
<stop offset="0.298" stop-color="#8BC34A"/>
<stop offset="0.409" stop-color="#90C046"/>
<stop offset="0.546" stop-color="#9FBA3C"/>
<stop offset="0.698" stop-color="#B8AF2C"/>
<stop offset="0.859" stop-color="#DBA016"/>
<stop offset="0.994" stop-color="#FF9100"/>
</linearGradient>
</defs>
</svg>
